<svg width="1380" height="272" viewBox="0 0 1380 272" fill="none" xmlns="http://www.w3.org/2000/svg">
<rect width="1380" height="272" rx="90" fill="white"/>
<path d="M444 205.4C437.067 205.4 430.933 204.733 425.6 203.4C420.4 202.2 416.333 201 413.4 199.8C410.467 198.467 409 197.8 409 197.8L407.4 195C407.4 195 407.533 194.067 407.8 192.2C408.2 190.2 408.533 187.6 408.8 184.4C409.2 181.067 409.6 177.4 410 173.4C410.4 169.267 410.6 165.133 410.6 161L427 159.8C427 167.133 427.667 172.867 429 177C430.333 181.133 432.6 184 435.8 185.6C439.133 187.2 443.6 188 449.2 188C455.6 188 460.733 186.6 464.6 183.8C468.467 181 470.4 177.133 470.4 172.2C470.4 168.467 468.933 165.267 466 162.6C463.2 159.933 459.533 157.467 455 155.2C450.6 152.8 445.867 150.4 440.8 148C435.6 145.467 430.533 142.6 425.6 139.4C420.8 136.2 416.8 132.4 413.6 128C410.533 123.6 409 118.267 409 112C409 104.267 411.267 97.4 415.8 91.4C420.467 85.4 426.733 80.7333 434.6 77.4C442.6 73.9333 451.8 72.2 462.2 72.2C468.733 72.2 474.533 72.6667 479.6 73.6C484.8 74.4 488.867 75.2667 491.8 76.2C494.733 77.1333 496.2 77.6 496.2 77.6L497.6 80.2C497.6 80.2 497.267 81.8 496.6 85C495.933 88.0667 495.2 92.2667 494.4 97.6C493.733 102.8 493.2 108.4 492.8 114.4L478 115.6L476.2 114.4C476.2 114.4 476.267 113.667 476.4 112.2C476.533 110.733 476.6 109.067 476.6 107.2C476.6 101.2 475.067 96.9333 472 94.4C469.067 91.8667 464.067 90.6 457 90.6C451.267 90.6 446.533 92 442.8 94.8C439.2 97.6 437.4 101.067 437.4 105.2C437.4 108.667 438.6 111.733 441 114.4C443.533 116.933 446.8 119.267 450.8 121.4C454.8 123.533 459.067 125.733 463.6 128C469.333 130.667 474.933 133.6 480.4 136.8C485.867 140 490.4 143.867 494 148.4C497.6 152.8 499.4 158.4 499.4 165.2C499.4 173.2 497.067 180.267 492.4 186.4C487.867 192.4 481.467 197.067 473.2 200.4C464.933 203.733 455.2 205.4 444 205.4ZM529.613 204.2L531.213 191.2C537.213 190.667 541.613 189.867 544.413 188.8C547.213 187.733 549.013 185.8 549.813 183C550.746 180.067 551.213 175.733 551.213 170V89.8C545.746 90.0667 541.413 90.4667 538.213 91C535.013 91.5333 532.546 92.6667 530.813 94.4C529.213 96.1333 528.013 98.7333 527.213 102.2C526.413 105.533 525.746 110.133 525.213 116L508.813 117.2C509.213 112.667 509.546 107.867 509.813 102.8C510.213 97.6 510.479 92.5333 510.613 87.6C510.879 82.6667 511.079 78.3333 511.213 74.6L513.413 72.4L533.213 74.6H595.613L615.813 72.4L618.012 74.6C618.146 79 618.279 83.8 618.413 89C618.546 94.0667 618.746 98.9333 619.013 103.6C619.413 108.267 619.746 112.4 620.013 116L603.613 117.2C602.946 110.933 602.213 106 601.413 102.4C600.613 98.8 599.413 96.2 597.813 94.6C596.346 92.8667 594.079 91.7333 591.013 91.2C588.079 90.5333 584.079 90.0667 579.013 89.8C578.613 94.4667 578.279 100.267 578.013 107.2C577.746 114 577.546 121.4 577.413 129.4C577.279 137.267 577.079 145.267 576.813 153.4C576.679 161.533 576.613 169.133 576.613 176.2C576.613 181.267 577.479 184.867 579.213 187C580.946 189 583.746 190 587.613 190C590.946 190 594.479 189.8 598.213 189.4L599.013 190.4L597.213 203.8C593.746 203.667 589.813 203.533 585.413 203.4C581.013 203.267 576.746 203.133 572.613 203C568.479 203 565.213 203 562.813 203C560.546 203 557.479 203 553.613 203C549.879 203.133 545.879 203.267 541.613 203.4C537.479 203.667 533.479 203.933 529.613 204.2ZM681.848 204.6L680.848 203L681.848 191.2C686.248 190.8 689.515 190.4 691.648 190C693.782 189.467 695.248 188.733 696.048 187.8C696.848 186.867 697.248 185.6 697.248 184C697.248 183.067 697.182 182.067 697.048 181C696.915 179.8 696.648 178.467 696.248 177L692.048 161.6C689.515 161.467 686.382 161.4 682.648 161.4C679.048 161.267 676.048 161.2 673.648 161.2C670.448 161.2 667.048 161.4 663.448 161.8C659.848 162.067 656.848 162.333 654.448 162.6L649.448 178C648.648 180.933 648.248 183 648.248 184.2C648.248 186.6 648.915 188.267 650.248 189.2C651.715 190.133 654.182 190.6 657.648 190.6H666.248L667.248 192L665.848 204.2C665.848 204.2 664.248 204.067 661.048 203.8C657.982 203.667 654.182 203.467 649.648 203.2C645.248 203.067 640.915 203 636.648 203C633.048 203 629.382 203 625.648 203C621.915 203.133 618.782 203.267 616.248 203.4C613.848 203.533 612.648 203.6 612.648 203.6L614.048 190.6C617.248 190.067 619.848 188.8 621.848 186.8C623.848 184.8 625.648 181.533 627.248 177L663.048 75.6L693.648 72.4L695.848 73.4C695.848 73.4 696.248 75.1333 697.048 78.6C697.982 82.0667 699.248 86.7333 700.848 92.6C702.448 98.3333 704.248 104.867 706.248 112.2C708.248 119.533 710.248 127.067 712.248 134.8C714.382 142.533 716.515 150.067 718.648 157.4C720.782 164.6 722.782 171.067 724.648 176.8C725.982 181.6 727.782 185 730.048 187C732.448 189 735.915 190.2 740.448 190.6L741.248 192L739.848 203.6C739.848 203.6 738.382 203.533 735.448 203.4C732.648 203.267 729.315 203.133 725.448 203C721.715 203 718.382 203 715.448 203C709.848 203 704.448 203.133 699.248 203.4C694.048 203.667 689.848 203.933 686.648 204.2C683.448 204.467 681.848 204.6 681.848 204.6ZM659.248 145.8H673.648C675.782 145.8 678.248 145.733 681.048 145.6C683.982 145.467 686.448 145.333 688.448 145.2L676.648 100.6H674.048L659.248 145.8ZM842.448 206.2C838.182 206.2 834.182 204.667 830.448 201.6C826.848 198.4 823.582 193.733 820.648 187.6L803.248 152.4H789.048L788.648 175C788.648 179.533 788.915 182.867 789.448 185C790.115 187.133 791.448 188.533 793.448 189.2C795.582 189.867 798.782 190.267 803.048 190.4L803.648 191.6L801.848 203.8C801.848 203.8 800.915 203.733 799.048 203.6C797.182 203.6 794.848 203.533 792.048 203.4C789.248 203.4 786.315 203.333 783.248 203.2C780.315 203.2 777.715 203.2 775.448 203.2C771.315 203.067 767.048 203.067 762.648 203.2C758.382 203.467 754.715 203.667 751.648 203.8C748.715 204.067 747.248 204.2 747.248 204.2L749.048 191C754.648 190.333 758.382 188.867 760.248 186.6C762.248 184.333 763.248 180.333 763.248 174.6V97.2C763.248 93.3333 762.782 90.7333 761.848 89.4C761.048 88.0667 759.382 87.4 756.848 87.4C755.515 87.4 754.048 87.4667 752.448 87.6C750.848 87.7333 750.048 87.8 750.048 87.8L748.848 86.2L750.648 74.2C750.648 74.2 751.515 74.2667 753.248 74.4C755.115 74.4 757.382 74.4667 760.048 74.6C762.848 74.6 765.648 74.6 768.448 74.6C771.248 74.6 773.648 74.6 775.648 74.6C777.648 74.6 780.315 74.6 783.648 74.6C786.982 74.4667 790.315 74.3333 793.648 74.2C797.115 74.0667 799.982 74 802.248 74C804.648 73.8667 805.848 73.8 805.848 73.8C820.915 73.8 832.515 76.7333 840.648 82.6C848.782 88.4667 852.848 96.9333 852.848 108C852.848 115.867 850.515 123.067 845.848 129.6C841.182 136.133 834.515 141.6 825.848 146L843.448 174.6C847.182 180.6 850.782 185 854.248 187.8C857.715 190.467 861.582 191.8 865.848 191.8L867.248 193.6L865.848 204L842.448 206.2ZM807.648 137C808.715 136.6 810.182 135.867 812.048 134.8C814.048 133.733 815.982 132.267 817.848 130.4C819.848 128.533 821.515 126.067 822.848 123C824.315 119.933 825.048 116.133 825.048 111.6C825.048 104.267 822.582 98.8 817.648 95.2C812.715 91.6 805.115 89.8 794.848 89.8C793.515 89.8 792.582 90.0667 792.048 90.6C791.648 91.1333 791.382 92.3333 791.248 94.2C790.848 102.333 790.515 109.6 790.248 116C789.982 122.4 789.782 128.733 789.648 135L807.648 137ZM889.573 204.2L891.173 191.2C897.173 190.667 901.573 189.867 904.373 188.8C907.173 187.733 908.973 185.8 909.773 183C910.707 180.067 911.173 175.733 911.173 170V89.8C905.707 90.0667 901.373 90.4667 898.173 91C894.973 91.5333 892.507 92.6667 890.773 94.4C889.173 96.1333 887.973 98.7333 887.173 102.2C886.373 105.533 885.707 110.133 885.173 116L868.773 117.2C869.173 112.667 869.507 107.867 869.773 102.8C870.173 97.6 870.44 92.5333 870.573 87.6C870.84 82.6667 871.04 78.3333 871.173 74.6L873.373 72.4L893.173 74.6H955.573L975.773 72.4L977.973 74.6C978.107 79 978.24 83.8 978.373 89C978.507 94.0667 978.707 98.9333 978.973 103.6C979.373 108.267 979.707 112.4 979.973 116L963.573 117.2C962.907 110.933 962.173 106 961.373 102.4C960.573 98.8 959.373 96.2 957.773 94.6C956.307 92.8667 954.04 91.7333 950.973 91.2C948.04 90.5333 944.04 90.0667 938.973 89.8C938.573 94.4667 938.24 100.267 937.973 107.2C937.707 114 937.507 121.4 937.373 129.4C937.24 137.267 937.04 145.267 936.773 153.4C936.64 161.533 936.573 169.133 936.573 176.2C936.573 181.267 937.44 184.867 939.173 187C940.907 189 943.707 190 947.573 190C950.907 190 954.44 189.8 958.173 189.4L958.973 190.4L957.173 203.8C953.707 203.667 949.773 203.533 945.373 203.4C940.973 203.267 936.707 203.133 932.573 203C928.44 203 925.173 203 922.773 203C920.507 203 917.44 203 913.573 203C909.84 203.133 905.84 203.267 901.573 203.4C897.44 203.667 893.44 203.933 889.573 204.2Z" fill="black"/>
</svg>
