<svg width="5971" height="565" viewBox="0 0 5971 565" fill="none" xmlns="http://www.w3.org/2000/svg">
<path d="M35.4 203C32.6 203 29.7333 203.133 26.8 203.4C23.8667 203.667 21.0667 203.867 18.4 204C15.8667 204.267 13.8 204.533 12.2 204.8C10.6 205.067 9.8 205.2 9.8 205.2L11 194.2C17.1333 193 21.2 191.267 23.2 189C25.2 186.733 26.2 182.933 26.2 177.6L26.4 96.2C26.4 92.0667 25.9333 89.2667 25 87.8C24.0667 86.3333 22.2 85.6 19.4 85.6C18.2 85.6 16.7333 85.6667 15 85.8C13.4 85.9333 12.6 86 12.6 86L11.8 85L13.4 74.6C13.4 74.6 14.2667 74.6667 16 74.8C17.8667 74.8 20.1333 74.8667 22.8 75C25.6 75 28.3333 75.0667 31 75.2C33.8 75.2 36.1333 75.2 38 75.2C39.4667 75.2 41.2667 75.2 43.4 75.2C45.6667 75.0667 48 75 50.4 75C52.8 74.8667 55.0667 74.7333 57.2 74.6C59.4667 74.4667 61.2667 74.4 62.6 74.4C63.9333 74.2667 64.6 74.2 64.6 74.2C77.8 74.2 87.8667 76.8667 94.8 82.2C101.867 87.4 105.4 95 105.4 105C105.4 111.667 103.4 117.667 99.4 123C95.4 128.2 89.9333 132.4 83 135.6C89 136.933 94.2 139 98.6 141.8C103 144.6 106.4 148 108.8 152C111.333 156 112.6 160.6 112.6 165.8C112.6 173.133 110.467 179.8 106.2 185.8C101.933 191.667 96.0667 196.333 88.6 199.8C81.1333 203.267 72.7333 205 63.4 205C61.5333 205 59.4 204.867 57 204.6C54.6 204.467 52.2 204.267 49.8 204C47.4 203.733 44.9333 203.467 42.4 203.2C40 203.067 37.6667 203 35.4 203ZM46.4 145L45.4 178.8C45.4 183.467 47 186.8 50.2 188.8C53.5333 190.8 59 191.8 66.6 191.8C73.9333 191.8 79.6667 189.8 83.8 185.8C88.0667 181.667 90.2 176.067 90.2 169C90.2 155.8 82.1333 147.667 66 144.6L46.4 145ZM46.8 131.2C46.8 131.2 47.6667 131.267 49.4 131.4C51.1333 131.533 53.2667 131.8 55.8 132.2C58.3333 132.467 60.6667 132.667 62.8 132.8C64.9333 132.933 66.4667 133 67.4 133C67.4 133 68.2 132.667 69.8 132C71.5333 131.2 73.4667 129.933 75.6 128.2C77.8667 126.467 79.8 124.067 81.4 121C83.1333 117.933 84 113.933 84 109C84 101.267 81.4 95.5333 76.2 91.8C71 88.0667 62.9333 86.2 52 86.2C50.6667 86.2 49.7333 86.5333 49.2 87.2C48.8 87.7333 48.5333 88.8667 48.4 90.6C48.1333 94.4667 47.8667 98.8 47.6 103.6C47.4667 108.267 47.2667 112.933 47 117.6C46.8667 122.267 46.8 126.8 46.8 131.2ZM132.066 205L133.266 194C139.132 193.2 143.132 191.6 145.266 189.2C147.399 186.8 148.466 182.733 148.466 177L148.666 96.4C148.666 92.1333 148.199 89.2667 147.266 87.8C146.466 86.3333 144.599 85.6 141.666 85.6C140.866 85.6 139.799 85.6667 138.466 85.8C137.266 85.8 136.132 85.8667 135.066 86L134.266 84.8L135.866 74.6C138.532 74.6 141.666 74.6667 145.266 74.8C148.999 74.9333 152.799 75.0667 156.666 75.2C160.666 75.2 164.266 75.2 167.466 75.2C177.732 75.2 186.532 75.1333 193.866 75C201.332 74.8667 207.799 74.6 213.266 74.2C218.732 73.8 223.599 73.3333 227.866 72.8L228.866 74.4C228.199 77.7333 227.532 81.4667 226.866 85.6C226.199 89.6 225.666 93.6667 225.266 97.8C224.866 101.8 224.532 105.533 224.266 109L210.866 110C210.999 108.8 211.066 107.333 211.066 105.6C211.199 103.867 211.266 102.533 211.266 101.6C211.266 98.5333 210.999 96.1333 210.466 94.4C209.932 92.5333 208.732 91.2 206.866 90.4C204.999 89.4667 202.132 88.8667 198.266 88.6C194.532 88.2 189.466 88 183.066 88C179.199 88 176.399 88.1333 174.666 88.4C172.932 88.6667 171.799 89.3333 171.266 90.4C170.866 91.4667 170.599 93.1333 170.466 95.4L168.466 140.6L167.866 179.2C167.866 182.667 168.132 185.267 168.666 187C169.332 188.733 170.666 189.867 172.666 190.4C174.666 190.933 177.866 191.2 182.266 191.2C189.466 191.2 195.266 190.933 199.666 190.4C204.066 189.867 207.399 188.8 209.666 187.2C212.066 185.6 213.799 183.2 214.866 180C216.066 176.8 216.999 172.6 217.666 167.4L230.066 166.2L231.066 167.6C229.999 172.133 228.932 177.733 227.866 184.4C226.932 191.067 226.132 197.2 225.466 202.8L224.066 204.4C216.466 204.133 208.732 203.867 200.866 203.6C192.999 203.467 185.732 203.333 179.066 203.2C172.399 203.067 166.999 203 162.866 203C158.332 203 153.132 203.133 147.266 203.4C141.532 203.8 136.466 204.333 132.066 205ZM165.866 145.6L167.466 130.8C168.399 130.8 170.132 130.8 172.666 130.8C175.199 130.8 177.932 130.867 180.866 131C183.799 131 186.399 131 188.666 131C190.932 131 194.399 130.8 199.066 130.4C203.732 130 208.266 129.533 212.666 129L213.666 130.4L210.866 144.6C207.266 144.467 202.799 144.333 197.466 144.2C192.132 144.067 187.599 144 183.866 144C181.066 144 177.999 144.2 174.666 144.6C171.332 144.867 168.399 145.2 165.866 145.6ZM284.82 205.4C278.154 205.4 272.354 204.8 267.42 203.6C262.487 202.4 258.62 201.2 255.82 200C253.02 198.8 251.62 198.2 251.62 198.2L250.42 196C250.42 196 250.554 195.067 250.82 193.2C251.087 191.2 251.354 188.667 251.62 185.6C252.02 182.4 252.354 178.733 252.62 174.6C253.02 170.333 253.22 165.933 253.22 161.4L265.42 160.4C265.42 168.933 266.087 175.533 267.42 180.2C268.754 184.733 271.154 187.867 274.62 189.6C278.22 191.333 283.287 192.2 289.82 192.2C297.154 192.2 303.087 190.467 307.62 187C312.287 183.533 314.62 178.867 314.62 173C314.62 168.867 313.154 165.333 310.22 162.4C307.287 159.467 303.554 156.733 299.02 154.2C294.487 151.667 289.687 149.133 284.62 146.6C279.287 143.933 274.154 141 269.22 137.8C264.287 134.6 260.22 130.867 257.02 126.6C253.954 122.333 252.42 117.2 252.42 111.2C252.42 103.733 254.554 97.1333 258.82 91.4C263.087 85.6667 268.887 81.1333 276.22 77.8C283.687 74.4667 292.154 72.8 301.62 72.8C307.887 72.8 313.42 73.2 318.22 74C323.02 74.8 326.82 75.6667 329.62 76.6C332.42 77.5333 333.82 78 333.82 78L334.62 79.8C334.62 79.8 334.287 81.3333 333.62 84.4C333.087 87.4667 332.487 91.6 331.82 96.8C331.154 102 330.554 107.667 330.02 113.8L319.22 114.8L317.62 113.6C317.62 113.6 317.687 112.8 317.82 111.2C318.087 109.467 318.22 107.267 318.22 104.6C318.22 98.0667 316.554 93.5333 313.22 91C310.02 88.3333 304.354 87 296.22 87C289.687 87 284.287 88.6667 280.02 92C275.754 95.2 273.62 99.2667 273.62 104.2C273.62 107.933 274.887 111.267 277.42 114.2C279.954 117 283.22 119.6 287.22 122C291.354 124.4 295.754 126.733 300.42 129C306.154 131.8 311.82 134.867 317.42 138.2C323.02 141.533 327.62 145.4 331.22 149.8C334.954 154.067 336.82 159.4 336.82 165.8C336.82 173.667 334.62 180.6 330.22 186.6C325.954 192.467 319.887 197.067 312.02 200.4C304.287 203.733 295.22 205.4 284.82 205.4ZM371.256 204L372.856 193.4C378.99 192.867 383.456 192.067 386.256 191C389.056 189.8 390.856 187.667 391.656 184.6C392.456 181.533 392.856 176.8 392.856 170.4V86.4C386.056 86.5333 380.723 86.8667 376.856 87.4C372.99 87.9333 370.056 89 368.056 90.6C366.19 92.2 364.79 94.7333 363.856 98.2C363.056 101.533 362.323 106.133 361.656 112L349.056 113C349.59 108.733 349.99 104.333 350.256 99.8C350.656 95.2667 350.99 90.8 351.256 86.4C351.523 82 351.723 78.0667 351.856 74.6L353.856 72.8L371.856 75H434.056L452.456 72.8L454.456 74.6C454.59 78.3333 454.723 82.4667 454.856 87C455.123 91.4 455.456 95.8 455.856 100.2C456.256 104.467 456.656 108.4 457.056 112L444.456 113C443.656 106.867 442.79 102.067 441.856 98.6C440.923 95.1333 439.523 92.6 437.656 91C435.923 89.2667 433.256 88.1333 429.656 87.6C426.056 87.0667 421.123 86.6667 414.856 86.4C414.456 90.6667 414.056 96.4 413.656 103.6C413.39 110.8 413.123 118.733 412.856 127.4C412.723 135.933 412.523 144.667 412.256 153.6C412.123 162.533 412.056 170.867 412.056 178.6C412.056 183.533 412.923 187.067 414.656 189.2C416.39 191.2 419.256 192.2 423.256 192.2C426.856 192.2 430.456 192 434.056 191.6L434.656 192.6L432.856 203.8C429.79 203.533 426.19 203.333 422.056 203.2C418.056 203.2 414.19 203.133 410.456 203C406.723 203 403.656 203 401.256 203C398.99 203 396.123 203 392.656 203C389.19 203.133 385.523 203.267 381.656 203.4C377.923 203.667 374.456 203.867 371.256 204ZM468.389 205.2L469.589 194.4C475.722 193.2 479.789 191.467 481.789 189.2C483.922 186.8 484.989 182.8 484.989 177.2L485.189 96.4C485.189 92.1333 484.656 89.2667 483.589 87.8C482.656 86.3333 480.722 85.6 477.789 85.6C476.856 85.6 475.589 85.6667 473.989 85.8C472.522 85.8 471.189 85.8667 469.989 86L469.389 84.8L470.789 74.8C474.656 74.8 478.989 74.8667 483.789 75C488.722 75.1333 492.922 75.2 496.389 75.2C499.056 75.2 502.722 75.0667 507.389 74.8C512.056 74.4 516.856 74 521.789 73.6L520.789 84.4C515.456 85.0667 511.856 86.1333 509.989 87.6C508.256 89.0667 507.256 91.7333 506.989 95.6C506.589 102.533 506.189 109.867 505.789 117.6C505.522 125.333 505.256 133.067 504.989 140.8C504.856 148.4 504.722 155.533 504.589 162.2C504.456 168.733 504.389 174.267 504.389 178.8C504.389 184.133 504.922 187.733 505.989 189.6C507.189 191.467 509.389 192.4 512.589 192.4C514.322 192.4 516.056 192.333 517.789 192.2C519.656 192.067 521.189 191.933 522.389 191.8L522.989 192.8L521.189 203.6C518.522 203.467 515.456 203.333 511.989 203.2C508.522 203.2 505.122 203.133 501.789 203C498.456 203 495.722 203 493.589 203C490.522 203 486.656 203.2 481.989 203.6C477.322 204 472.789 204.533 468.389 205.2ZM595.902 204.8L595.102 203.4L595.902 193.8C600.435 193.267 603.902 192.8 606.302 192.4C608.702 191.867 610.368 191.133 611.302 190.2C612.235 189.267 612.702 187.933 612.702 186.2C612.702 185.133 612.568 183.933 612.302 182.6C612.168 181.133 611.835 179.6 611.302 178L605.702 159C603.302 158.867 600.035 158.8 595.902 158.8C591.902 158.8 588.635 158.8 586.102 158.8C582.502 158.8 578.702 159 574.702 159.4C570.835 159.667 567.768 159.933 565.502 160.2L559.102 178.6C558.035 181.8 557.502 184.133 557.502 185.6C557.502 188.267 558.368 190.2 560.102 191.4C561.835 192.467 564.568 193 568.302 193H578.502L579.102 194L577.902 204.2C577.902 204.2 576.435 204.067 573.502 203.8C570.568 203.667 566.902 203.467 562.502 203.2C558.102 203.067 553.768 203 549.502 203C546.035 203 542.502 203 538.902 203C535.435 203.133 532.502 203.267 530.102 203.4C527.702 203.533 526.502 203.6 526.502 203.6L528.102 192.6C531.568 192.067 534.368 190.8 536.502 188.8C538.635 186.667 540.635 183.067 542.502 178L580.102 76.2L600.902 72.8L602.702 73.4C602.702 73.4 603.168 75.0667 604.102 78.4C605.035 81.6 606.235 86.0667 607.702 91.8C609.302 97.4 611.102 103.8 613.102 111C615.102 118.2 617.235 125.733 619.502 133.6C621.768 141.467 624.035 149.333 626.302 157.2C628.702 164.933 630.968 172.133 633.102 178.8C634.702 183.6 636.768 187 639.302 189C641.835 191 645.702 192.267 650.902 192.8L651.502 193.8L650.102 203.6C650.102 203.6 648.702 203.533 645.902 203.4C643.235 203.267 640.102 203.133 636.502 203C633.035 203 629.968 203 627.302 203C622.102 203 617.035 203.133 612.102 203.4C607.302 203.8 603.368 204.133 600.302 204.4C597.368 204.667 595.902 204.8 595.902 204.8ZM569.502 147.2H585.702C588.102 147.2 590.968 147.133 594.302 147C597.635 146.733 600.368 146.533 602.502 146.4L588.702 97.6H586.702L569.502 147.2ZM752.209 206.2C748.476 206.2 744.743 204.533 741.009 201.2C737.276 197.867 733.809 193.267 730.609 187.4L711.209 150.2H695.609L695.209 176.8C695.209 181.467 695.476 184.933 696.009 187.2C696.676 189.467 698.009 190.933 700.009 191.6C702.143 192.267 705.343 192.667 709.609 192.8L710.009 193.6L708.209 203.8C708.209 203.8 707.409 203.733 705.809 203.6C704.209 203.6 702.209 203.533 699.809 203.4C697.409 203.4 694.876 203.333 692.209 203.2C689.543 203.2 687.009 203.2 684.609 203.2C681.009 203.067 677.209 203.067 673.209 203.2C669.343 203.333 666.009 203.467 663.209 203.6C660.543 203.867 659.209 204 659.209 204L661.009 193C667.009 192.333 670.943 190.933 672.809 188.8C674.809 186.667 675.809 182.733 675.809 177L676.009 96C676.009 92 675.543 89.2667 674.609 87.8C673.676 86.3333 671.809 85.6 669.009 85.6C667.809 85.6 666.343 85.6667 664.609 85.8C663.009 85.9333 662.209 86 662.209 86L661.409 85L663.009 74.6C663.009 74.6 663.809 74.6667 665.409 74.8C667.143 74.8 669.276 74.8667 671.809 75C674.343 75 676.943 75.0667 679.609 75.2C682.276 75.2 684.543 75.2 686.409 75.2C688.276 75.2 690.676 75.2 693.609 75.2C696.676 75.0667 699.743 74.9333 702.809 74.8C705.876 74.6667 708.409 74.6 710.409 74.6C712.543 74.4667 713.609 74.4 713.609 74.4C727.209 74.4 737.809 77.2667 745.409 83C753.009 88.6 756.809 96.6 756.809 107C756.809 114.867 754.343 122.133 749.409 128.8C744.609 135.467 737.676 140.933 728.609 145.2L748.609 177.2C752.476 183.333 756.143 187.733 759.609 190.4C763.209 193.067 767.476 194.4 772.409 194.4L773.409 195.6L772.009 204L752.209 206.2ZM715.609 138.2C716.009 137.933 717.209 137.333 719.209 136.4C721.343 135.467 723.609 134 726.009 132C728.543 130 730.676 127.267 732.409 123.8C734.276 120.333 735.209 115.933 735.209 110.6C735.209 102.467 732.409 96.4 726.809 92.4C721.343 88.2667 712.943 86.2 701.609 86.2C700.276 86.2 699.343 86.5333 698.809 87.2C698.409 87.7333 698.143 88.9333 698.009 90.8C697.476 100.267 697.009 108.533 696.609 115.6C696.343 122.667 696.143 129.533 696.009 136.2L715.609 138.2Z" fill="white"/>
<path d="M148.905 562.6L150.305 551.6C156.038 550.533 159.838 548.933 161.705 546.8C163.571 544.667 164.505 540.733 164.505 535L164.705 454.4C164.705 450.133 164.238 447.267 163.305 445.8C162.371 444.333 160.505 443.6 157.705 443.6C156.505 443.6 155.038 443.667 153.305 443.8C151.705 443.933 150.905 444 150.905 444L150.105 443L151.705 432.8C152.371 432.8 154.038 432.867 156.705 433C159.505 433 162.571 433.067 165.905 433.2C169.371 433.2 172.438 433.2 175.105 433.2C176.705 433.2 178.971 433.2 181.905 433.2C184.838 433.067 187.905 432.933 191.105 432.8C194.305 432.667 196.971 432.6 199.105 432.6C201.371 432.467 202.505 432.4 202.505 432.4C210.505 432.4 217.305 433.267 222.905 435C228.638 436.733 233.305 439.267 236.905 442.6C240.638 445.933 243.371 449.867 245.105 454.4C246.838 458.933 247.705 463.867 247.705 469.2C247.705 475.067 246.438 480.667 243.905 486C241.371 491.2 237.905 495.933 233.505 500.2C229.105 504.333 224.105 507.6 218.505 510C213.038 512.4 207.238 513.6 201.105 513.6H184.105L183.905 531.2C183.905 536.667 184.105 540.8 184.505 543.6C184.905 546.4 185.771 548.267 187.105 549.2C188.438 550 190.371 550.4 192.905 550.4C194.771 550.4 196.905 550.333 199.305 550.2C201.705 549.933 202.905 549.8 202.905 549.8L203.305 550.8L201.505 561.6C201.505 561.6 200.705 561.533 199.105 561.4C197.638 561.4 195.771 561.333 193.505 561.2C191.238 561.2 188.905 561.133 186.505 561C184.105 561 182.038 561 180.305 561C177.638 561 174.505 561.067 170.905 561.2C167.438 561.333 164.038 561.467 160.705 561.6C157.371 561.733 154.571 561.867 152.305 562C150.171 562.267 149.038 562.467 148.905 562.6ZM204.305 502C218.705 499.333 225.905 489.533 225.905 472.6C225.905 463.133 223.171 456.2 217.705 451.8C212.238 447.4 203.638 445.2 191.905 445.2C189.638 445.2 188.238 445.333 187.705 445.6C187.305 445.867 187.038 446.8 186.905 448.4C186.371 456.533 185.905 465 185.505 473.8C185.105 482.6 184.771 491.067 184.505 499.2L204.305 502ZM311.355 562.8L310.555 561.4L311.355 551.8C315.888 551.267 319.355 550.8 321.755 550.4C324.155 549.867 325.821 549.133 326.755 548.2C327.688 547.267 328.155 545.933 328.155 544.2C328.155 543.133 328.021 541.933 327.755 540.6C327.621 539.133 327.288 537.6 326.755 536L321.155 517C318.755 516.867 315.488 516.8 311.355 516.8C307.355 516.8 304.088 516.8 301.555 516.8C297.955 516.8 294.155 517 290.155 517.4C286.288 517.667 283.221 517.933 280.955 518.2L274.555 536.6C273.488 539.8 272.955 542.133 272.955 543.6C272.955 546.267 273.821 548.2 275.555 549.4C277.288 550.467 280.021 551 283.755 551H293.955L294.555 552L293.355 562.2C293.355 562.2 291.888 562.067 288.955 561.8C286.021 561.667 282.355 561.467 277.955 561.2C273.555 561.067 269.221 561 264.955 561C261.488 561 257.955 561 254.355 561C250.888 561.133 247.955 561.267 245.555 561.4C243.155 561.533 241.955 561.6 241.955 561.6L243.555 550.6C247.021 550.067 249.821 548.8 251.955 546.8C254.088 544.667 256.088 541.067 257.955 536L295.555 434.2L316.355 430.8L318.155 431.4C318.155 431.4 318.621 433.067 319.555 436.4C320.488 439.6 321.688 444.067 323.155 449.8C324.755 455.4 326.555 461.8 328.555 469C330.555 476.2 332.688 483.733 334.955 491.6C337.221 499.467 339.488 507.333 341.755 515.2C344.155 522.933 346.421 530.133 348.555 536.8C350.155 541.6 352.221 545 354.755 547C357.288 549 361.155 550.267 366.355 550.8L366.955 551.8L365.555 561.6C365.555 561.6 364.155 561.533 361.355 561.4C358.688 561.267 355.555 561.133 351.955 561C348.488 561 345.421 561 342.755 561C337.555 561 332.488 561.133 327.555 561.4C322.755 561.8 318.821 562.133 315.755 562.4C312.821 562.667 311.355 562.8 311.355 562.8ZM284.955 505.2H301.155C303.555 505.2 306.421 505.133 309.755 505C313.088 504.733 315.821 504.533 317.955 504.4L304.155 455.6H302.155L284.955 505.2ZM467.663 564.2C463.929 564.2 460.196 562.533 456.463 559.2C452.729 555.867 449.263 551.267 446.063 545.4L426.663 508.2H411.063L410.663 534.8C410.663 539.467 410.929 542.933 411.463 545.2C412.129 547.467 413.463 548.933 415.463 549.6C417.596 550.267 420.796 550.667 425.063 550.8L425.463 551.6L423.663 561.8C423.663 561.8 422.863 561.733 421.263 561.6C419.663 561.6 417.663 561.533 415.263 561.4C412.863 561.4 410.329 561.333 407.663 561.2C404.996 561.2 402.463 561.2 400.063 561.2C396.463 561.067 392.663 561.067 388.663 561.2C384.796 561.333 381.463 561.467 378.663 561.6C375.996 561.867 374.663 562 374.663 562L376.463 551C382.463 550.333 386.396 548.933 388.263 546.8C390.263 544.667 391.263 540.733 391.263 535L391.462 454C391.462 450 390.996 447.267 390.062 445.8C389.129 444.333 387.263 443.6 384.463 443.6C383.263 443.6 381.796 443.667 380.063 443.8C378.463 443.933 377.663 444 377.663 444L376.863 443L378.463 432.6C378.463 432.6 379.263 432.667 380.863 432.8C382.596 432.8 384.729 432.867 387.263 433C389.796 433 392.396 433.067 395.063 433.2C397.729 433.2 399.996 433.2 401.863 433.2C403.729 433.2 406.129 433.2 409.063 433.2C412.129 433.067 415.196 432.933 418.263 432.8C421.329 432.667 423.863 432.6 425.863 432.6C427.996 432.467 429.063 432.4 429.063 432.4C442.663 432.4 453.263 435.267 460.863 441C468.463 446.6 472.263 454.6 472.263 465C472.263 472.867 469.796 480.133 464.863 486.8C460.063 493.467 453.129 498.933 444.063 503.2L464.063 535.2C467.929 541.333 471.596 545.733 475.063 548.4C478.663 551.067 482.929 552.4 487.863 552.4L488.863 553.6L487.463 562L467.663 564.2ZM431.063 496.2C431.463 495.933 432.663 495.333 434.663 494.4C436.796 493.467 439.063 492 441.463 490C443.996 488 446.129 485.267 447.863 481.8C449.729 478.333 450.663 473.933 450.663 468.6C450.663 460.467 447.863 454.4 442.263 450.4C436.796 446.267 428.396 444.2 417.063 444.2C415.729 444.2 414.796 444.533 414.263 445.2C413.863 445.733 413.596 446.933 413.463 448.8C412.929 458.267 412.463 466.533 412.063 473.6C411.796 480.667 411.596 487.533 411.463 494.2L431.063 496.2ZM541.063 494.4L574.063 459.4C577.929 455.533 579.863 452.133 579.863 449.2C579.863 447.467 578.863 446.133 576.863 445.2C574.996 444.133 572.063 443.467 568.063 443.2L567.463 442.2L569.063 432C569.063 432 569.863 432.067 571.463 432.2C573.063 432.333 575.129 432.467 577.663 432.6C580.329 432.733 582.929 432.867 585.463 433C588.129 433.133 590.463 433.2 592.463 433.2C594.329 433.2 596.396 433.2 598.663 433.2C601.063 433.067 603.329 432.933 605.463 432.8C607.729 432.667 609.529 432.6 610.863 432.6C612.196 432.467 612.863 432.4 612.863 432.4L613.863 434L612.463 443.6C609.929 444.4 607.529 445.533 605.263 447C603.129 448.333 600.729 450.267 598.063 452.8C595.396 455.333 592.063 458.733 588.063 463L560.863 492.4L591.463 534.6C595.863 540.6 599.863 544.933 603.463 547.6C607.063 550.267 611.129 551.667 615.663 551.8L616.863 553L615.463 561.6C615.463 561.6 614.596 561.667 612.863 561.8C611.129 562.067 609.063 562.333 606.663 562.6C604.262 563 601.996 563.267 599.863 563.4C597.863 563.667 596.529 563.8 595.863 563.8C592.129 563.8 588.396 562.4 584.663 559.6C580.929 556.667 577.263 552.4 573.663 546.8L540.663 498L541.063 494.4ZM516.462 454.4C516.462 450.133 515.996 447.267 515.062 445.8C514.129 444.333 512.129 443.6 509.063 443.6C507.863 443.6 506.463 443.667 504.863 443.8C503.396 443.933 502.663 444 502.663 444L501.863 442.8L503.463 432.6C503.463 432.6 504.329 432.667 506.063 432.8C507.929 432.8 510.196 432.867 512.863 433C515.663 433 518.396 433.067 521.063 433.2C523.729 433.2 525.929 433.2 527.663 433.2C529.796 433.2 532.196 433.133 534.863 433C537.663 432.733 540.329 432.533 542.862 432.4C545.396 432.267 547.463 432.133 549.063 432C550.796 431.733 551.663 431.6 551.663 431.6L550.863 442.4C545.929 443.333 542.529 444.6 540.663 446.2C538.929 447.8 537.996 450.467 537.863 454.2L535.663 536.8C535.529 542.133 536.063 545.733 537.263 547.6C538.463 549.467 540.663 550.4 543.863 550.4C545.996 550.4 547.929 550.333 549.663 550.2C551.529 549.933 552.463 549.8 552.463 549.8L553.063 550.8L551.263 561.6C551.263 561.6 550.329 561.533 548.463 561.4C546.596 561.4 544.196 561.333 541.263 561.2C538.463 561.2 535.596 561.133 532.663 561C529.729 561 527.129 561 524.863 561C522.196 561 519.396 561 516.462 561C513.529 561 510.796 561 508.263 561C505.729 561.133 503.663 561.2 502.063 561.2C500.463 561.333 499.663 561.4 499.663 561.4L501.663 550.8C507.796 550 511.729 548.667 513.463 546.8C515.329 544.8 516.263 540.933 516.263 535.2L516.462 454.4Z" fill="white"/>
<path d="M434 388.8C425.2 374.8 416.733 361.733 408.6 349.6C400.467 337.333 393.267 326.6 387 317.4C380.733 308.2 375.733 301 372 295.8C368.4 290.467 366.6 287.8 366.6 287.8H365.2L364.4 363C364.533 366.067 365.067 368.267 366 369.6C366.933 370.8 368.6 371.4 371 371.4C371.667 371.4 372.733 371.4 374.2 371.4C375.8 371.267 377.267 371.2 378.6 371.2C379.933 371.2 380.6 371.2 380.6 371.2L381.2 372.2L379.4 382.8C379.4 382.8 378.6 382.733 377 382.6C375.4 382.6 373.4 382.533 371 382.4C368.6 382.267 366.067 382.133 363.4 382C360.733 382 358.333 382 356.2 382C353.133 382 349.933 382.133 346.6 382.4C343.4 382.667 340.667 382.933 338.4 383.2C336.133 383.467 335 383.6 335 383.6L336.2 372.6C340.333 372.067 343.333 370.867 345.2 369C347.2 367.133 348.267 364.133 348.4 360L351 276.2C351 271.933 349.8 269 347.4 267.4C345.133 265.667 340.667 264.467 334 263.8L333.2 262.4L334.6 253.2C334.6 253.2 335.733 253.267 338 253.4C340.267 253.533 342.933 253.733 346 254C349.067 254.133 351.867 254.2 354.4 254.2C356.933 254.2 359.4 254.133 361.8 254C364.2 253.867 366.2 253.733 367.8 253.6C369.4 253.467 370.2 253.4 370.2 253.4C376.333 262.867 382.333 272.133 388.2 281.2C394.067 290.133 399.6 298.533 404.8 306.4C410 314.133 414.6 320.933 418.6 326.8C422.733 332.533 425.933 337.067 428.2 340.4C430.467 343.6 431.6 345.2 431.6 345.2H433L432.8 273.4C432.8 270.333 432.267 268.133 431.2 266.8C430.133 265.467 428.467 264.8 426.2 264.8C424.6 264.8 423 264.867 421.4 265C419.933 265 419.133 265 419 265L418.4 263.8L420 253.4C420 253.4 420.733 253.467 422.2 253.6C423.8 253.6 425.733 253.667 428 253.8C430.4 253.933 432.8 254.067 435.2 254.2C437.733 254.2 440 254.2 442 254.2C444.933 254.2 448.067 254.133 451.4 254C454.733 253.733 457.533 253.467 459.8 253.2C462.2 252.933 463.4 252.8 463.4 252.8L462.4 263.8C457.867 264.333 454.533 265.6 452.4 267.6C450.4 269.6 449.333 272.533 449.2 276.4L446.4 386.2L434 388.8ZM532.988 383.8L532.188 382.4L532.988 372.8C537.521 372.267 540.988 371.8 543.388 371.4C545.788 370.867 547.454 370.133 548.388 369.2C549.321 368.267 549.788 366.933 549.788 365.2C549.788 364.133 549.654 362.933 549.388 361.6C549.254 360.133 548.921 358.6 548.388 357L542.788 338C540.388 337.867 537.121 337.8 532.988 337.8C528.988 337.8 525.721 337.8 523.188 337.8C519.588 337.8 515.788 338 511.788 338.4C507.921 338.667 504.854 338.933 502.588 339.2L496.188 357.6C495.121 360.8 494.588 363.133 494.588 364.6C494.588 367.267 495.454 369.2 497.188 370.4C498.921 371.467 501.654 372 505.388 372H515.588L516.188 373L514.988 383.2C514.988 383.2 513.521 383.067 510.588 382.8C507.654 382.667 503.988 382.467 499.588 382.2C495.188 382.067 490.854 382 486.588 382C483.121 382 479.588 382 475.988 382C472.521 382.133 469.588 382.267 467.188 382.4C464.787 382.533 463.587 382.6 463.587 382.6L465.187 371.6C468.654 371.067 471.454 369.8 473.588 367.8C475.721 365.667 477.721 362.067 479.588 357L517.188 255.2L537.988 251.8L539.788 252.4C539.788 252.4 540.254 254.067 541.188 257.4C542.121 260.6 543.321 265.067 544.788 270.8C546.388 276.4 548.188 282.8 550.188 290C552.188 297.2 554.321 304.733 556.588 312.6C558.854 320.467 561.121 328.333 563.388 336.2C565.788 343.933 568.054 351.133 570.188 357.8C571.788 362.6 573.854 366 576.387 368C578.921 370 582.788 371.267 587.988 371.8L588.588 372.8L587.188 382.6C587.188 382.6 585.788 382.533 582.988 382.4C580.321 382.267 577.188 382.133 573.588 382C570.121 382 567.054 382 564.388 382C559.188 382 554.121 382.133 549.188 382.4C544.388 382.8 540.454 383.133 537.388 383.4C534.454 383.667 532.988 383.8 532.988 383.8ZM506.588 326.2H522.788C525.188 326.2 528.054 326.133 531.388 326C534.721 325.733 537.454 325.533 539.588 325.4L525.788 276.6H523.788L506.588 326.2ZM604.436 383L606.036 372.4C612.169 371.867 616.636 371.067 619.436 370C622.236 368.8 624.036 366.667 624.836 363.6C625.636 360.533 626.036 355.8 626.036 349.4V265.4C619.236 265.533 613.903 265.867 610.036 266.4C606.169 266.933 603.236 268 601.236 269.6C599.369 271.2 597.969 273.733 597.036 277.2C596.236 280.533 595.503 285.133 594.836 291L582.236 292C582.769 287.733 583.169 283.333 583.436 278.8C583.836 274.267 584.169 269.8 584.436 265.4C584.703 261 584.903 257.067 585.036 253.6L587.036 251.8L605.036 254H667.236L685.636 251.8L687.636 253.6C687.769 257.333 687.903 261.467 688.036 266C688.303 270.4 688.636 274.8 689.036 279.2C689.436 283.467 689.836 287.4 690.236 291L677.636 292C676.836 285.867 675.969 281.067 675.036 277.6C674.103 274.133 672.703 271.6 670.836 270C669.103 268.267 666.436 267.133 662.836 266.6C659.236 266.067 654.303 265.667 648.036 265.4C647.636 269.667 647.236 275.4 646.836 282.6C646.569 289.8 646.303 297.733 646.036 306.4C645.903 314.933 645.703 323.667 645.436 332.6C645.303 341.533 645.236 349.867 645.236 357.6C645.236 362.533 646.103 366.067 647.836 368.2C649.569 370.2 652.436 371.2 656.436 371.2C660.036 371.2 663.636 371 667.236 370.6L667.836 371.6L666.036 382.8C662.969 382.533 659.369 382.333 655.236 382.2C651.236 382.2 647.369 382.133 643.636 382C639.903 382 636.836 382 634.436 382C632.169 382 629.303 382 625.836 382C622.369 382.133 618.703 382.267 614.836 382.4C611.103 382.667 607.636 382.867 604.436 383ZM701.569 384.2L702.769 373.4C708.902 372.2 712.969 370.467 714.969 368.2C717.102 365.8 718.169 361.8 718.169 356.2L718.369 275.4C718.369 271.133 717.835 268.267 716.769 266.8C715.835 265.333 713.902 264.6 710.969 264.6C710.035 264.6 708.769 264.667 707.169 264.8C705.702 264.8 704.369 264.867 703.169 265L702.569 263.8L703.969 253.8C707.835 253.8 712.169 253.867 716.969 254C721.902 254.133 726.102 254.2 729.569 254.2C732.235 254.2 735.902 254.067 740.569 253.8C745.235 253.4 750.035 253 754.969 252.6L753.969 263.4C748.635 264.067 745.035 265.133 743.169 266.6C741.435 268.067 740.435 270.733 740.169 274.6C739.769 281.533 739.369 288.867 738.969 296.6C738.702 304.333 738.435 312.067 738.169 319.8C738.035 327.4 737.902 334.533 737.769 341.2C737.635 347.733 737.569 353.267 737.569 357.8C737.569 363.133 738.102 366.733 739.169 368.6C740.369 370.467 742.569 371.4 745.769 371.4C747.502 371.4 749.235 371.333 750.969 371.2C752.835 371.067 754.369 370.933 755.569 370.8L756.169 371.8L754.369 382.6C751.702 382.467 748.635 382.333 745.169 382.2C741.702 382.2 738.302 382.133 734.969 382C731.635 382 728.902 382 726.769 382C723.702 382 719.835 382.2 715.169 382.6C710.502 383 705.969 383.533 701.569 384.2ZM827.825 384.4C816.492 384.4 806.625 381.867 798.225 376.8C789.825 371.6 783.292 364.333 778.625 355C773.958 345.533 771.625 334.533 771.625 322C771.625 311.867 773.225 302.533 776.425 294C779.625 285.467 784.158 278.067 790.025 271.8C796.025 265.4 803.025 260.467 811.025 257C819.025 253.533 827.758 251.8 837.225 251.8C848.958 251.8 859.092 254.4 867.625 259.6C876.158 264.667 882.758 271.867 887.425 281.2C892.225 290.4 894.625 301.267 894.625 313.8C894.625 324.067 892.958 333.533 889.625 342.2C886.292 350.733 881.625 358.133 875.625 364.4C869.758 370.667 862.758 375.6 854.625 379.2C846.492 382.667 837.558 384.4 827.825 384.4ZM833.625 371.2C841.225 371.2 847.758 369.267 853.225 365.4C858.825 361.4 863.158 355.8 866.225 348.6C869.425 341.4 871.025 332.933 871.025 323.2C871.025 311.467 869.358 301.467 866.025 293.2C862.692 284.8 858.025 278.333 852.025 273.8C846.158 269.267 839.158 267 831.025 267C823.692 267 817.292 269 811.825 273C806.358 276.867 802.092 282.4 799.025 289.6C796.092 296.667 794.625 305.067 794.625 314.8C794.625 326.4 796.225 336.4 799.425 344.8C802.625 353.2 807.158 359.733 813.025 364.4C818.892 368.933 825.758 371.2 833.625 371.2ZM1011.34 388.8C1002.54 374.8 994.077 361.733 985.944 349.6C977.81 337.333 970.61 326.6 964.344 317.4C958.077 308.2 953.077 301 949.344 295.8C945.744 290.467 943.944 287.8 943.944 287.8H942.544L941.744 363C941.877 366.067 942.41 368.267 943.344 369.6C944.277 370.8 945.944 371.4 948.344 371.4C949.01 371.4 950.077 371.4 951.544 371.4C953.144 371.267 954.61 371.2 955.944 371.2C957.277 371.2 957.944 371.2 957.944 371.2L958.544 372.2L956.744 382.8C956.744 382.8 955.944 382.733 954.344 382.6C952.744 382.6 950.744 382.533 948.344 382.4C945.944 382.267 943.41 382.133 940.744 382C938.077 382 935.677 382 933.544 382C930.477 382 927.277 382.133 923.944 382.4C920.744 382.667 918.01 382.933 915.744 383.2C913.477 383.467 912.344 383.6 912.344 383.6L913.544 372.6C917.677 372.067 920.677 370.867 922.544 369C924.544 367.133 925.61 364.133 925.744 360L928.344 276.2C928.344 271.933 927.144 269 924.744 267.4C922.477 265.667 918.01 264.467 911.344 263.8L910.544 262.4L911.944 253.2C911.944 253.2 913.077 253.267 915.344 253.4C917.61 253.533 920.277 253.733 923.344 254C926.41 254.133 929.21 254.2 931.744 254.2C934.277 254.2 936.744 254.133 939.144 254C941.544 253.867 943.544 253.733 945.144 253.6C946.744 253.467 947.544 253.4 947.544 253.4C953.677 262.867 959.677 272.133 965.544 281.2C971.41 290.133 976.944 298.533 982.144 306.4C987.344 314.133 991.944 320.933 995.944 326.8C1000.08 332.533 1003.28 337.067 1005.54 340.4C1007.81 343.6 1008.94 345.2 1008.94 345.2H1010.34L1010.14 273.4C1010.14 270.333 1009.61 268.133 1008.54 266.8C1007.48 265.467 1005.81 264.8 1003.54 264.8C1001.94 264.8 1000.34 264.867 998.744 265C997.277 265 996.477 265 996.344 265L995.744 263.8L997.344 253.4C997.344 253.4 998.077 253.467 999.544 253.6C1001.14 253.6 1003.08 253.667 1005.34 253.8C1007.74 253.933 1010.14 254.067 1012.54 254.2C1015.08 254.2 1017.34 254.2 1019.34 254.2C1022.28 254.2 1025.41 254.133 1028.74 254C1032.08 253.733 1034.88 253.467 1037.14 253.2C1039.54 252.933 1040.74 252.8 1040.74 252.8L1039.74 263.8C1035.21 264.333 1031.88 265.6 1029.74 267.6C1027.74 269.6 1026.68 272.533 1026.54 276.4L1023.74 386.2L1011.34 388.8ZM1110.33 383.8L1109.53 382.4L1110.33 372.8C1114.86 372.267 1118.33 371.8 1120.73 371.4C1123.13 370.867 1124.8 370.133 1125.73 369.2C1126.66 368.267 1127.13 366.933 1127.13 365.2C1127.13 364.133 1127 362.933 1126.73 361.6C1126.6 360.133 1126.26 358.6 1125.73 357L1120.13 338C1117.73 337.867 1114.46 337.8 1110.33 337.8C1106.33 337.8 1103.06 337.8 1100.53 337.8C1096.93 337.8 1093.13 338 1089.13 338.4C1085.26 338.667 1082.2 338.933 1079.93 339.2L1073.53 357.6C1072.46 360.8 1071.93 363.133 1071.93 364.6C1071.93 367.267 1072.8 369.2 1074.53 370.4C1076.26 371.467 1079 372 1082.73 372H1092.93L1093.53 373L1092.33 383.2C1092.33 383.2 1090.86 383.067 1087.93 382.8C1085 382.667 1081.33 382.467 1076.93 382.2C1072.53 382.067 1068.2 382 1063.93 382C1060.46 382 1056.93 382 1053.33 382C1049.86 382.133 1046.93 382.267 1044.53 382.4C1042.13 382.533 1040.93 382.6 1040.93 382.6L1042.53 371.6C1046 371.067 1048.8 369.8 1050.93 367.8C1053.06 365.667 1055.06 362.067 1056.93 357L1094.53 255.2L1115.33 251.8L1117.13 252.4C1117.13 252.4 1117.6 254.067 1118.53 257.4C1119.46 260.6 1120.66 265.067 1122.13 270.8C1123.73 276.4 1125.53 282.8 1127.53 290C1129.53 297.2 1131.66 304.733 1133.93 312.6C1136.2 320.467 1138.46 328.333 1140.73 336.2C1143.13 343.933 1145.4 351.133 1147.53 357.8C1149.13 362.6 1151.2 366 1153.73 368C1156.26 370 1160.13 371.267 1165.33 371.8L1165.93 372.8L1164.53 382.6C1164.53 382.6 1163.13 382.533 1160.33 382.4C1157.66 382.267 1154.53 382.133 1150.93 382C1147.46 382 1144.4 382 1141.73 382C1136.53 382 1131.46 382.133 1126.53 382.4C1121.73 382.8 1117.8 383.133 1114.73 383.4C1111.8 383.667 1110.33 383.8 1110.33 383.8ZM1083.93 326.2H1100.13C1102.53 326.2 1105.4 326.133 1108.73 326C1112.06 325.733 1114.8 325.533 1116.93 325.4L1103.13 276.6H1101.13L1083.93 326.2ZM1175.44 384L1176.64 373C1181.84 372.2 1185.37 370.6 1187.24 368.2C1189.24 365.8 1190.24 361.733 1190.24 356V275.4C1190.24 271.133 1189.77 268.267 1188.84 266.8C1187.91 265.333 1185.97 264.6 1183.04 264.6C1181.84 264.6 1180.44 264.667 1178.84 264.8C1177.37 264.933 1176.64 265 1176.64 265L1175.84 263.8L1177.24 253.8C1178.04 253.8 1179.84 253.867 1182.64 254C1185.57 254 1188.77 254.067 1192.24 254.2C1195.84 254.2 1198.97 254.2 1201.64 254.2C1203.91 254.2 1206.44 254.133 1209.24 254C1212.17 253.733 1214.97 253.533 1217.64 253.4C1220.44 253.267 1222.71 253.133 1224.44 253C1226.31 252.733 1227.24 252.6 1227.24 252.6L1226.24 263.8C1221.71 264.2 1218.51 265 1216.64 266.2C1214.77 267.267 1213.64 268.933 1213.24 271.2C1212.84 273.467 1212.44 276.6 1212.04 280.6C1211.51 288.467 1211.04 296.933 1210.64 306C1210.37 315.067 1210.11 323.933 1209.84 332.6C1209.71 341.267 1209.64 349.133 1209.64 356.2C1209.64 360.2 1209.97 363.2 1210.64 365.2C1211.44 367.2 1212.91 368.533 1215.04 369.2C1217.17 369.867 1220.44 370.2 1224.84 370.2C1230.17 370.2 1234.51 369.867 1237.84 369.2C1241.17 368.4 1243.84 367 1245.84 365C1247.84 362.867 1249.44 359.867 1250.64 356C1251.97 352.133 1253.11 347.067 1254.04 340.8L1266.24 339.6L1267.24 341C1267.24 341 1266.91 342.933 1266.24 346.8C1265.57 350.667 1264.84 355.733 1264.04 362C1263.24 368.133 1262.44 374.867 1261.64 382.2L1260.24 383.8C1260.24 383.8 1258.37 383.667 1254.64 383.4C1251.04 383.267 1246.37 383.067 1240.64 382.8C1234.91 382.667 1228.91 382.467 1222.64 382.2C1216.37 382.067 1210.64 382 1205.44 382C1200.11 382 1195.11 382.133 1190.44 382.4C1185.91 382.8 1182.24 383.133 1179.44 383.4C1176.77 383.8 1175.44 384 1175.44 384Z" fill="white"/>
<path d="M1595.8 247.8L1595 246.4L1595.8 236.8C1600.33 236.267 1603.8 235.8 1606.2 235.4C1608.6 234.867 1610.27 234.133 1611.2 233.2C1612.13 232.267 1612.6 230.933 1612.6 229.2C1612.6 228.133 1612.47 226.933 1612.2 225.6C1612.07 224.133 1611.73 222.6 1611.2 221L1605.6 202C1603.2 201.867 1599.93 201.8 1595.8 201.8C1591.8 201.8 1588.53 201.8 1586 201.8C1582.4 201.8 1578.6 202 1574.6 202.4C1570.73 202.667 1567.67 202.933 1565.4 203.2L1559 221.6C1557.93 224.8 1557.4 227.133 1557.4 228.6C1557.4 231.267 1558.27 233.2 1560 234.4C1561.73 235.467 1564.47 236 1568.2 236H1578.4L1579 237L1577.8 247.2C1577.8 247.2 1576.33 247.067 1573.4 246.8C1570.47 246.667 1566.8 246.467 1562.4 246.2C1558 246.067 1553.67 246 1549.4 246C1545.93 246 1542.4 246 1538.8 246C1535.33 246.133 1532.4 246.267 1530 246.4C1527.6 246.533 1526.4 246.6 1526.4 246.6L1528 235.6C1531.47 235.067 1534.27 233.8 1536.4 231.8C1538.53 229.667 1540.53 226.067 1542.4 221L1580 119.2L1600.8 115.8L1602.6 116.4C1602.6 116.4 1603.07 118.067 1604 121.4C1604.93 124.6 1606.13 129.067 1607.6 134.8C1609.2 140.4 1611 146.8 1613 154C1615 161.2 1617.13 168.733 1619.4 176.6C1621.67 184.467 1623.93 192.333 1626.2 200.2C1628.6 207.933 1630.87 215.133 1633 221.8C1634.6 226.6 1636.67 230 1639.2 232C1641.73 234 1645.6 235.267 1650.8 235.8L1651.4 236.8L1650 246.6C1650 246.6 1648.6 246.533 1645.8 246.4C1643.13 246.267 1640 246.133 1636.4 246C1632.93 246 1629.87 246 1627.2 246C1622 246 1616.93 246.133 1612 246.4C1607.2 246.8 1603.27 247.133 1600.2 247.4C1597.27 247.667 1595.8 247.8 1595.8 247.8ZM1569.4 190.2H1585.6C1588 190.2 1590.87 190.133 1594.2 190C1597.53 189.733 1600.27 189.533 1602.4 189.4L1588.6 140.6H1586.6L1569.4 190.2ZM1684.91 246C1682.11 246 1679.24 246.133 1676.31 246.4C1673.37 246.667 1670.57 246.867 1667.91 247C1665.37 247.267 1663.31 247.533 1661.71 247.8C1660.11 248.067 1659.31 248.2 1659.31 248.2L1660.51 237.2C1666.64 236 1670.71 234.267 1672.71 232C1674.71 229.733 1675.71 225.933 1675.71 220.6L1675.91 139.2C1675.91 135.067 1675.44 132.267 1674.51 130.8C1673.57 129.333 1671.71 128.6 1668.91 128.6C1667.71 128.6 1666.24 128.667 1664.51 128.8C1662.91 128.933 1662.11 129 1662.11 129L1661.31 128L1662.91 117.6C1662.91 117.6 1663.77 117.667 1665.51 117.8C1667.37 117.8 1669.64 117.867 1672.31 118C1675.11 118 1677.84 118.067 1680.51 118.2C1683.31 118.2 1685.64 118.2 1687.51 118.2C1688.97 118.2 1690.77 118.2 1692.91 118.2C1695.17 118.067 1697.51 118 1699.91 118C1702.31 117.867 1704.57 117.733 1706.71 117.6C1708.97 117.467 1710.77 117.4 1712.11 117.4C1713.44 117.267 1714.11 117.2 1714.11 117.2C1727.31 117.2 1737.37 119.867 1744.31 125.2C1751.37 130.4 1754.91 138 1754.91 148C1754.91 154.667 1752.91 160.667 1748.91 166C1744.91 171.2 1739.44 175.4 1732.51 178.6C1738.51 179.933 1743.71 182 1748.11 184.8C1752.51 187.6 1755.91 191 1758.31 195C1760.84 199 1762.11 203.6 1762.11 208.8C1762.11 216.133 1759.97 222.8 1755.71 228.8C1751.44 234.667 1745.57 239.333 1738.11 242.8C1730.64 246.267 1722.24 248 1712.91 248C1711.04 248 1708.91 247.867 1706.51 247.6C1704.11 247.467 1701.71 247.267 1699.31 247C1696.91 246.733 1694.44 246.467 1691.91 246.2C1689.51 246.067 1687.17 246 1684.91 246ZM1695.91 188L1694.91 221.8C1694.91 226.467 1696.51 229.8 1699.71 231.8C1703.04 233.8 1708.51 234.8 1716.11 234.8C1723.44 234.8 1729.17 232.8 1733.31 228.8C1737.57 224.667 1739.71 219.067 1739.71 212C1739.71 198.8 1731.64 190.667 1715.51 187.6L1695.91 188ZM1696.31 174.2C1696.31 174.2 1697.17 174.267 1698.91 174.4C1700.64 174.533 1702.77 174.8 1705.31 175.2C1707.84 175.467 1710.17 175.667 1712.31 175.8C1714.44 175.933 1715.97 176 1716.91 176C1716.91 176 1717.71 175.667 1719.31 175C1721.04 174.2 1722.97 172.933 1725.11 171.2C1727.37 169.467 1729.31 167.067 1730.91 164C1732.64 160.933 1733.51 156.933 1733.51 152C1733.51 144.267 1730.91 138.533 1725.71 134.8C1720.51 131.067 1712.44 129.2 1701.51 129.2C1700.17 129.2 1699.24 129.533 1698.71 130.2C1698.31 130.733 1698.04 131.867 1697.91 133.6C1697.64 137.467 1697.37 141.8 1697.11 146.6C1696.97 151.267 1696.77 155.933 1696.51 160.6C1696.37 165.267 1696.31 169.8 1696.31 174.2ZM1834.97 248.4C1823.64 248.4 1813.77 245.867 1805.37 240.8C1796.97 235.6 1790.44 228.333 1785.77 219C1781.11 209.533 1778.77 198.533 1778.77 186C1778.77 175.867 1780.37 166.533 1783.57 158C1786.77 149.467 1791.31 142.067 1797.17 135.8C1803.17 129.4 1810.17 124.467 1818.17 121C1826.17 117.533 1834.91 115.8 1844.37 115.8C1856.11 115.8 1866.24 118.4 1874.77 123.6C1883.31 128.667 1889.91 135.867 1894.57 145.2C1899.37 154.4 1901.77 165.267 1901.77 177.8C1901.77 188.067 1900.11 197.533 1896.77 206.2C1893.44 214.733 1888.77 222.133 1882.77 228.4C1876.91 234.667 1869.91 239.6 1861.77 243.2C1853.64 246.667 1844.71 248.4 1834.97 248.4ZM1840.77 235.2C1848.37 235.2 1854.91 233.267 1860.37 229.4C1865.97 225.4 1870.31 219.8 1873.37 212.6C1876.57 205.4 1878.17 196.933 1878.17 187.2C1878.17 175.467 1876.51 165.467 1873.17 157.2C1869.84 148.8 1865.17 142.333 1859.17 137.8C1853.31 133.267 1846.31 131 1838.17 131C1830.84 131 1824.44 133 1818.97 137C1813.51 140.867 1809.24 146.4 1806.17 153.6C1803.24 160.667 1801.77 169.067 1801.77 178.8C1801.77 190.4 1803.37 200.4 1806.57 208.8C1809.77 217.2 1814.31 223.733 1820.17 228.4C1826.04 232.933 1832.91 235.2 1840.77 235.2ZM1972.89 248.4C1958.36 248.4 1947.23 244.667 1939.49 237.2C1931.89 229.733 1928.09 218.867 1928.09 204.6V139.4C1928.09 135.133 1927.63 132.267 1926.69 130.8C1925.89 129.333 1924.03 128.6 1921.09 128.6C1919.89 128.6 1918.49 128.667 1916.89 128.8C1915.29 128.933 1914.49 129 1914.49 129L1914.09 128.2L1915.49 117.6C1915.49 117.6 1916.96 117.667 1919.89 117.8C1922.96 117.933 1926.43 118.067 1930.29 118.2C1934.16 118.2 1937.69 118.2 1940.89 118.2C1942.89 118.2 1945.16 118.133 1947.69 118C1950.36 117.733 1952.83 117.533 1955.09 117.4C1957.36 117.267 1959.23 117.133 1960.69 117C1962.29 116.733 1963.09 116.6 1963.09 116.6L1961.89 127.6C1957.36 128.133 1954.23 129.2 1952.49 130.8C1950.89 132.267 1950.03 134.867 1949.89 138.6L1948.29 197.2C1948.29 209.067 1950.83 218.2 1955.89 224.6C1961.09 231 1968.49 234.2 1978.09 234.2C1987.69 234.2 1995.03 231.6 2000.09 226.4C2005.16 221.2 2007.69 213.6 2007.69 203.6C2007.69 200.933 2007.63 197.067 2007.49 192C2007.49 186.8 2007.43 181.2 2007.29 175.2C2007.16 169.2 2007.03 163.533 2006.89 158.2C2006.89 152.733 2006.83 148.267 2006.69 144.8C2006.69 141.2 2006.69 139.4 2006.69 139.4C2006.43 134.867 2005.89 131.933 2005.09 130.6C2004.29 129.267 2002.49 128.6 1999.69 128.6C1998.49 128.6 1996.89 128.667 1994.89 128.8C1992.89 128.933 1991.89 129 1991.89 129L1991.49 128.2L1993.09 117.6C1993.09 117.6 1993.89 117.667 1995.49 117.8C1997.09 117.8 1999.09 117.867 2001.49 118C2004.03 118 2006.56 118.067 2009.09 118.2C2011.76 118.2 2014.03 118.2 2015.89 118.2C2019.09 118.2 2022.29 118.133 2025.49 118C2028.83 117.733 2031.63 117.467 2033.89 117.2C2036.16 116.8 2037.29 116.6 2037.29 116.6L2036.29 127.4C2030.96 128.333 2027.43 129.467 2025.69 130.8C2024.09 132 2023.29 134.533 2023.29 138.4V203.4C2023.29 217.8 2018.89 228.933 2010.09 236.8C2001.43 244.533 1989.03 248.4 1972.89 248.4ZM2066.08 247L2067.68 236.4C2073.81 235.867 2078.28 235.067 2081.08 234C2083.88 232.8 2085.68 230.667 2086.48 227.6C2087.28 224.533 2087.68 219.8 2087.68 213.4V129.4C2080.88 129.533 2075.54 129.867 2071.68 130.4C2067.81 130.933 2064.88 132 2062.88 133.6C2061.01 135.2 2059.61 137.733 2058.68 141.2C2057.88 144.533 2057.14 149.133 2056.48 155L2043.88 156C2044.41 151.733 2044.81 147.333 2045.08 142.8C2045.48 138.267 2045.81 133.8 2046.08 129.4C2046.34 125 2046.54 121.067 2046.68 117.6L2048.68 115.8L2066.68 118H2128.88L2147.28 115.8L2149.28 117.6C2149.41 121.333 2149.54 125.467 2149.68 130C2149.94 134.4 2150.28 138.8 2150.68 143.2C2151.08 147.467 2151.48 151.4 2151.88 155L2139.28 156C2138.48 149.867 2137.61 145.067 2136.68 141.6C2135.74 138.133 2134.34 135.6 2132.48 134C2130.74 132.267 2128.08 131.133 2124.48 130.6C2120.88 130.067 2115.94 129.667 2109.68 129.4C2109.28 133.667 2108.88 139.4 2108.48 146.6C2108.21 153.8 2107.94 161.733 2107.68 170.4C2107.54 178.933 2107.34 187.667 2107.08 196.6C2106.94 205.533 2106.88 213.867 2106.88 221.6C2106.88 226.533 2107.74 230.067 2109.48 232.2C2111.21 234.2 2114.08 235.2 2118.08 235.2C2121.68 235.2 2125.28 235 2128.88 234.6L2129.48 235.6L2127.68 246.8C2124.61 246.533 2121.01 246.333 2116.88 246.2C2112.88 246.2 2109.01 246.133 2105.28 246C2101.54 246 2098.48 246 2096.08 246C2093.81 246 2090.94 246 2087.48 246C2084.01 246.133 2080.34 246.267 2076.48 246.4C2072.74 246.667 2069.28 246.867 2066.08 247Z" fill="white"/>
<path d="M2513.6 248.4C2501.47 248.4 2490.93 245.867 2482 240.8C2473.07 235.733 2466.13 228.533 2461.2 219.2C2456.4 209.867 2454 198.8 2454 186C2454 175.6 2455.67 166.133 2459 157.6C2462.47 148.933 2467.27 141.533 2473.4 135.4C2479.67 129.133 2487 124.333 2495.4 121C2503.93 117.533 2513.4 115.8 2523.8 115.8C2527.93 115.8 2532.13 116.067 2536.4 116.6C2540.8 117 2544.73 117.533 2548.2 118.2C2551.8 118.867 2554.67 119.467 2556.8 120C2559.07 120.4 2560.2 120.6 2560.2 120.6L2561 122.4C2561 122.4 2560.67 124 2560 127.2C2559.33 130.267 2558.6 134.533 2557.8 140C2557 145.333 2556.4 151.267 2556 157.8L2542 158.8C2542 158.8 2542.07 157.733 2542.2 155.6C2542.47 153.333 2542.6 151 2542.6 148.6C2542.6 142.6 2540.47 138.133 2536.2 135.2C2531.93 132.267 2525.33 130.8 2516.4 130.8C2508.27 130.8 2501.33 132.733 2495.6 136.6C2489.87 140.467 2485.4 146 2482.2 153.2C2479.13 160.267 2477.6 169 2477.6 179.4C2477.6 190.733 2479.27 200.533 2482.6 208.8C2485.93 217.067 2490.6 223.467 2496.6 228C2502.6 232.4 2509.73 234.6 2518 234.6C2526.27 234.6 2532.8 232.2 2537.6 227.4C2542.53 222.6 2546.07 215.067 2548.2 204.8L2562.2 203.6C2562.2 203.6 2562 204.667 2561.6 206.8C2561.2 208.933 2560.73 211.733 2560.2 215.2C2559.67 218.667 2559.13 222.467 2558.6 226.6C2558.07 230.6 2557.67 234.533 2557.4 238.4L2556 240.4C2556 240.4 2554.13 241.067 2550.4 242.4C2546.67 243.733 2541.6 245.067 2535.2 246.4C2528.93 247.733 2521.73 248.4 2513.6 248.4ZM2632.66 248.4C2621.33 248.4 2611.46 245.867 2603.06 240.8C2594.66 235.6 2588.13 228.333 2583.46 219C2578.79 209.533 2576.46 198.533 2576.46 186C2576.46 175.867 2578.06 166.533 2581.26 158C2584.46 149.467 2588.99 142.067 2594.86 135.8C2600.86 129.4 2607.86 124.467 2615.86 121C2623.86 117.533 2632.59 115.8 2642.06 115.8C2653.79 115.8 2663.93 118.4 2672.46 123.6C2680.99 128.667 2687.59 135.867 2692.26 145.2C2697.06 154.4 2699.46 165.267 2699.46 177.8C2699.46 188.067 2697.79 197.533 2694.46 206.2C2691.13 214.733 2686.46 222.133 2680.46 228.4C2674.59 234.667 2667.59 239.6 2659.46 243.2C2651.33 246.667 2642.39 248.4 2632.66 248.4ZM2638.46 235.2C2646.06 235.2 2652.59 233.267 2658.06 229.4C2663.66 225.4 2667.99 219.8 2671.06 212.6C2674.26 205.4 2675.86 196.933 2675.86 187.2C2675.86 175.467 2674.19 165.467 2670.86 157.2C2667.53 148.8 2662.86 142.333 2656.86 137.8C2650.99 133.267 2643.99 131 2635.86 131C2628.53 131 2622.13 133 2616.66 137C2611.19 140.867 2606.93 146.4 2603.86 153.6C2600.93 160.667 2599.46 169.067 2599.46 178.8C2599.46 190.4 2601.06 200.4 2604.26 208.8C2607.46 217.2 2611.99 223.733 2617.86 228.4C2623.73 232.933 2630.59 235.2 2638.46 235.2ZM2717.58 248L2718.78 237C2723.98 236.2 2727.51 234.6 2729.38 232.2C2731.38 229.8 2732.38 225.733 2732.38 220V139.4C2732.38 135.133 2731.91 132.267 2730.98 130.8C2730.05 129.333 2728.11 128.6 2725.18 128.6C2723.98 128.6 2722.58 128.667 2720.98 128.8C2719.51 128.933 2718.78 129 2718.78 129L2717.98 127.8L2719.38 117.8C2720.18 117.8 2721.98 117.867 2724.78 118C2727.71 118 2730.91 118.067 2734.38 118.2C2737.98 118.2 2741.11 118.2 2743.78 118.2C2746.05 118.2 2748.58 118.133 2751.38 118C2754.31 117.733 2757.11 117.533 2759.78 117.4C2762.58 117.267 2764.85 117.133 2766.58 117C2768.45 116.733 2769.38 116.6 2769.38 116.6L2768.38 127.8C2763.85 128.2 2760.65 129 2758.78 130.2C2756.91 131.267 2755.78 132.933 2755.38 135.2C2754.98 137.467 2754.58 140.6 2754.18 144.6C2753.65 152.467 2753.18 160.933 2752.78 170C2752.51 179.067 2752.25 187.933 2751.98 196.6C2751.85 205.267 2751.78 213.133 2751.78 220.2C2751.78 224.2 2752.11 227.2 2752.78 229.2C2753.58 231.2 2755.05 232.533 2757.18 233.2C2759.31 233.867 2762.58 234.2 2766.98 234.2C2772.31 234.2 2776.65 233.867 2779.98 233.2C2783.31 232.4 2785.98 231 2787.98 229C2789.98 226.867 2791.58 223.867 2792.78 220C2794.11 216.133 2795.25 211.067 2796.18 204.8L2808.38 203.6L2809.38 205C2809.38 205 2809.05 206.933 2808.38 210.8C2807.71 214.667 2806.98 219.733 2806.18 226C2805.38 232.133 2804.58 238.867 2803.78 246.2L2802.38 247.8C2802.38 247.8 2800.51 247.667 2796.78 247.4C2793.18 247.267 2788.51 247.067 2782.78 246.8C2777.05 246.667 2771.05 246.467 2764.78 246.2C2758.51 246.067 2752.78 246 2747.58 246C2742.25 246 2737.25 246.133 2732.58 246.4C2728.05 246.8 2724.38 247.133 2721.58 247.4C2718.91 247.8 2717.58 248 2717.58 248ZM2817.78 248L2818.98 237C2824.18 236.2 2827.71 234.6 2829.58 232.2C2831.58 229.8 2832.58 225.733 2832.58 220V139.4C2832.58 135.133 2832.11 132.267 2831.18 130.8C2830.24 129.333 2828.31 128.6 2825.38 128.6C2824.18 128.6 2822.78 128.667 2821.18 128.8C2819.71 128.933 2818.98 129 2818.98 129L2818.18 127.8L2819.57 117.8C2820.38 117.8 2822.18 117.867 2824.98 118C2827.91 118 2831.11 118.067 2834.58 118.2C2838.18 118.2 2841.31 118.2 2843.98 118.2C2846.24 118.2 2848.78 118.133 2851.58 118C2854.51 117.733 2857.31 117.533 2859.98 117.4C2862.78 117.267 2865.04 117.133 2866.78 117C2868.64 116.733 2869.58 116.6 2869.58 116.6L2868.58 127.8C2864.04 128.2 2860.84 129 2858.98 130.2C2857.11 131.267 2855.98 132.933 2855.58 135.2C2855.18 137.467 2854.78 140.6 2854.38 144.6C2853.84 152.467 2853.38 160.933 2852.98 170C2852.71 179.067 2852.44 187.933 2852.18 196.6C2852.04 205.267 2851.98 213.133 2851.98 220.2C2851.98 224.2 2852.31 227.2 2852.98 229.2C2853.78 231.2 2855.24 232.533 2857.38 233.2C2859.51 233.867 2862.78 234.2 2867.18 234.2C2872.51 234.2 2876.84 233.867 2880.18 233.2C2883.51 232.4 2886.18 231 2888.18 229C2890.18 226.867 2891.78 223.867 2892.98 220C2894.31 216.133 2895.44 211.067 2896.38 204.8L2908.58 203.6L2909.58 205C2909.58 205 2909.24 206.933 2908.58 210.8C2907.91 214.667 2907.18 219.733 2906.38 226C2905.58 232.133 2904.78 238.867 2903.98 246.2L2902.58 247.8C2902.58 247.8 2900.71 247.667 2896.98 247.4C2893.38 247.267 2888.71 247.067 2882.98 246.8C2877.24 246.667 2871.24 246.467 2864.98 246.2C2858.71 246.067 2852.98 246 2847.78 246C2842.44 246 2837.44 246.133 2832.77 246.4C2828.24 246.8 2824.58 247.133 2821.78 247.4C2819.11 247.8 2817.78 248 2817.78 248ZM2916.37 248L2917.57 237C2923.44 236.2 2927.44 234.6 2929.57 232.2C2931.7 229.8 2932.77 225.733 2932.77 220L2932.97 139.4C2932.97 135.133 2932.5 132.267 2931.57 130.8C2930.77 129.333 2928.9 128.6 2925.97 128.6C2925.17 128.6 2924.1 128.667 2922.77 128.8C2921.57 128.8 2920.44 128.867 2919.37 129L2918.57 127.8L2920.17 117.6C2922.84 117.6 2925.97 117.667 2929.57 117.8C2933.3 117.933 2937.1 118.067 2940.97 118.2C2944.97 118.2 2948.57 118.2 2951.77 118.2C2962.04 118.2 2970.84 118.133 2978.17 118C2985.64 117.867 2992.1 117.6 2997.57 117.2C3003.04 116.8 3007.9 116.333 3012.17 115.8L3013.17 117.4C3012.5 120.733 3011.84 124.467 3011.17 128.6C3010.5 132.6 3009.97 136.667 3009.57 140.8C3009.17 144.8 3008.84 148.533 3008.57 152L2995.17 153C2995.3 151.8 2995.37 150.333 2995.37 148.6C2995.5 146.867 2995.57 145.533 2995.57 144.6C2995.57 141.533 2995.3 139.133 2994.77 137.4C2994.24 135.533 2993.04 134.2 2991.17 133.4C2989.3 132.467 2986.44 131.867 2982.57 131.6C2978.84 131.2 2973.77 131 2967.37 131C2963.5 131 2960.7 131.133 2958.97 131.4C2957.24 131.667 2956.1 132.333 2955.57 133.4C2955.17 134.467 2954.9 136.133 2954.77 138.4L2952.77 183.6L2952.17 222.2C2952.17 225.667 2952.44 228.267 2952.97 230C2953.64 231.733 2954.97 232.867 2956.97 233.4C2958.97 233.933 2962.17 234.2 2966.57 234.2C2973.77 234.2 2979.57 233.933 2983.97 233.4C2988.37 232.867 2991.7 231.8 2993.97 230.2C2996.37 228.6 2998.1 226.2 2999.17 223C3000.37 219.8 3001.3 215.6 3001.97 210.4L3014.37 209.2L3015.37 210.6C3014.3 215.133 3013.24 220.733 3012.17 227.4C3011.24 234.067 3010.44 240.2 3009.77 245.8L3008.37 247.4C3000.77 247.133 2993.04 246.867 2985.17 246.6C2977.3 246.467 2970.04 246.333 2963.37 246.2C2956.7 246.067 2951.3 246 2947.17 246C2942.64 246 2937.44 246.133 2931.57 246.4C2925.84 246.8 2920.77 247.333 2916.37 248ZM2950.17 188.6L2951.77 173.8C2952.7 173.8 2954.44 173.8 2956.97 173.8C2959.5 173.8 2962.24 173.867 2965.17 174C2968.1 174 2970.7 174 2972.97 174C2975.24 174 2978.7 173.8 2983.37 173.4C2988.04 173 2992.57 172.533 2996.97 172L2997.97 173.4L2995.17 187.6C2991.57 187.467 2987.1 187.333 2981.77 187.2C2976.44 187.067 2971.9 187 2968.17 187C2965.37 187 2962.3 187.2 2958.97 187.6C2955.64 187.867 2952.7 188.2 2950.17 188.6ZM3088.6 248.4C3076.47 248.4 3065.93 245.867 3057 240.8C3048.07 235.733 3041.13 228.533 3036.2 219.2C3031.4 209.867 3029 198.8 3029 186C3029 175.6 3030.67 166.133 3034 157.6C3037.47 148.933 3042.27 141.533 3048.4 135.4C3054.67 129.133 3062 124.333 3070.4 121C3078.93 117.533 3088.4 115.8 3098.8 115.8C3102.93 115.8 3107.13 116.067 3111.4 116.6C3115.8 117 3119.73 117.533 3123.2 118.2C3126.8 118.867 3129.67 119.467 3131.8 120C3134.07 120.4 3135.2 120.6 3135.2 120.6L3136 122.4C3136 122.4 3135.67 124 3135 127.2C3134.33 130.267 3133.6 134.533 3132.8 140C3132 145.333 3131.4 151.267 3131 157.8L3117 158.8C3117 158.8 3117.07 157.733 3117.2 155.6C3117.47 153.333 3117.6 151 3117.6 148.6C3117.6 142.6 3115.47 138.133 3111.2 135.2C3106.93 132.267 3100.33 130.8 3091.4 130.8C3083.27 130.8 3076.33 132.733 3070.6 136.6C3064.87 140.467 3060.4 146 3057.2 153.2C3054.13 160.267 3052.6 169 3052.6 179.4C3052.6 190.733 3054.27 200.533 3057.6 208.8C3060.93 217.067 3065.6 223.467 3071.6 228C3077.6 232.4 3084.73 234.6 3093 234.6C3101.27 234.6 3107.8 232.2 3112.6 227.4C3117.53 222.6 3121.07 215.067 3123.2 204.8L3137.2 203.6C3137.2 203.6 3137 204.667 3136.6 206.8C3136.2 208.933 3135.73 211.733 3135.2 215.2C3134.67 218.667 3134.13 222.467 3133.6 226.6C3133.07 230.6 3132.67 234.533 3132.4 238.4L3131 240.4C3131 240.4 3129.13 241.067 3125.4 242.4C3121.67 243.733 3116.6 245.067 3110.2 246.4C3103.93 247.733 3096.73 248.4 3088.6 248.4ZM3169.82 247L3171.42 236.4C3177.55 235.867 3182.02 235.067 3184.82 234C3187.62 232.8 3189.42 230.667 3190.22 227.6C3191.02 224.533 3191.42 219.8 3191.42 213.4V129.4C3184.62 129.533 3179.29 129.867 3175.42 130.4C3171.55 130.933 3168.62 132 3166.62 133.6C3164.75 135.2 3163.35 137.733 3162.42 141.2C3161.62 144.533 3160.89 149.133 3160.22 155L3147.62 156C3148.15 151.733 3148.55 147.333 3148.82 142.8C3149.22 138.267 3149.55 133.8 3149.82 129.4C3150.09 125 3150.29 121.067 3150.42 117.6L3152.42 115.8L3170.42 118H3232.62L3251.02 115.8L3253.02 117.6C3253.15 121.333 3253.29 125.467 3253.42 130C3253.69 134.4 3254.02 138.8 3254.42 143.2C3254.82 147.467 3255.22 151.4 3255.62 155L3243.02 156C3242.22 149.867 3241.35 145.067 3240.42 141.6C3239.49 138.133 3238.09 135.6 3236.22 134C3234.49 132.267 3231.82 131.133 3228.22 130.6C3224.62 130.067 3219.69 129.667 3213.42 129.4C3213.02 133.667 3212.62 139.4 3212.22 146.6C3211.95 153.8 3211.69 161.733 3211.42 170.4C3211.29 178.933 3211.09 187.667 3210.82 196.6C3210.69 205.533 3210.62 213.867 3210.62 221.6C3210.62 226.533 3211.49 230.067 3213.22 232.2C3214.95 234.2 3217.82 235.2 3221.82 235.2C3225.42 235.2 3229.02 235 3232.62 234.6L3233.22 235.6L3231.42 246.8C3228.35 246.533 3224.75 246.333 3220.62 246.2C3216.62 246.2 3212.75 246.133 3209.02 246C3205.29 246 3202.22 246 3199.82 246C3197.55 246 3194.69 246 3191.22 246C3187.75 246.133 3184.09 246.267 3180.22 246.4C3176.49 246.667 3173.02 246.867 3169.82 247ZM3266.95 248.2L3268.15 237.4C3274.28 236.2 3278.35 234.467 3280.35 232.2C3282.48 229.8 3283.55 225.8 3283.55 220.2L3283.75 139.4C3283.75 135.133 3283.22 132.267 3282.15 130.8C3281.22 129.333 3279.28 128.6 3276.35 128.6C3275.42 128.6 3274.15 128.667 3272.55 128.8C3271.08 128.8 3269.75 128.867 3268.55 129L3267.95 127.8L3269.35 117.8C3273.22 117.8 3277.55 117.867 3282.35 118C3287.28 118.133 3291.48 118.2 3294.95 118.2C3297.62 118.2 3301.28 118.067 3305.95 117.8C3310.62 117.4 3315.42 117 3320.35 116.6L3319.35 127.4C3314.02 128.067 3310.42 129.133 3308.55 130.6C3306.82 132.067 3305.82 134.733 3305.55 138.6C3305.15 145.533 3304.75 152.867 3304.35 160.6C3304.08 168.333 3303.82 176.067 3303.55 183.8C3303.42 191.4 3303.28 198.533 3303.15 205.2C3303.02 211.733 3302.95 217.267 3302.95 221.8C3302.95 227.133 3303.48 230.733 3304.55 232.6C3305.75 234.467 3307.95 235.4 3311.15 235.4C3312.88 235.4 3314.62 235.333 3316.35 235.2C3318.22 235.067 3319.75 234.933 3320.95 234.8L3321.55 235.8L3319.75 246.6C3317.08 246.467 3314.02 246.333 3310.55 246.2C3307.08 246.2 3303.68 246.133 3300.35 246C3297.02 246 3294.28 246 3292.15 246C3289.08 246 3285.22 246.2 3280.55 246.6C3275.88 247 3271.35 247.533 3266.95 248.2ZM3393.21 248.4C3381.87 248.4 3372.01 245.867 3363.61 240.8C3355.21 235.6 3348.67 228.333 3344.01 219C3339.34 209.533 3337.01 198.533 3337.01 186C3337.01 175.867 3338.61 166.533 3341.81 158C3345.01 149.467 3349.54 142.067 3355.41 135.8C3361.41 129.4 3368.41 124.467 3376.41 121C3384.41 117.533 3393.14 115.8 3402.61 115.8C3414.34 115.8 3424.47 118.4 3433.01 123.6C3441.54 128.667 3448.14 135.867 3452.81 145.2C3457.61 154.4 3460.01 165.267 3460.01 177.8C3460.01 188.067 3458.34 197.533 3455.01 206.2C3451.67 214.733 3447.01 222.133 3441.01 228.4C3435.14 234.667 3428.14 239.6 3420.01 243.2C3411.87 246.667 3402.94 248.4 3393.21 248.4ZM3399.01 235.2C3406.61 235.2 3413.14 233.267 3418.61 229.4C3424.21 225.4 3428.54 219.8 3431.61 212.6C3434.81 205.4 3436.41 196.933 3436.41 187.2C3436.41 175.467 3434.74 165.467 3431.41 157.2C3428.07 148.8 3423.41 142.333 3417.41 137.8C3411.54 133.267 3404.54 131 3396.41 131C3389.07 131 3382.67 133 3377.21 137C3371.74 140.867 3367.47 146.4 3364.41 153.6C3361.47 160.667 3360.01 169.067 3360.01 178.8C3360.01 190.4 3361.61 200.4 3364.81 208.8C3368.01 217.2 3372.54 223.733 3378.41 228.4C3384.27 232.933 3391.14 235.2 3399.01 235.2ZM3576.73 252.8C3567.93 238.8 3559.46 225.733 3551.33 213.6C3543.19 201.333 3535.99 190.6 3529.73 181.4C3523.46 172.2 3518.46 165 3514.73 159.8C3511.13 154.467 3509.33 151.8 3509.33 151.8H3507.93L3507.13 227C3507.26 230.067 3507.79 232.267 3508.73 233.6C3509.66 234.8 3511.33 235.4 3513.73 235.4C3514.39 235.4 3515.46 235.4 3516.93 235.4C3518.53 235.267 3519.99 235.2 3521.33 235.2C3522.66 235.2 3523.33 235.2 3523.33 235.2L3523.93 236.2L3522.13 246.8C3522.13 246.8 3521.33 246.733 3519.73 246.6C3518.13 246.6 3516.13 246.533 3513.73 246.4C3511.33 246.267 3508.79 246.133 3506.13 246C3503.46 246 3501.06 246 3498.93 246C3495.86 246 3492.66 246.133 3489.33 246.4C3486.13 246.667 3483.39 246.933 3481.13 247.2C3478.86 247.467 3477.73 247.6 3477.73 247.6L3478.93 236.6C3483.06 236.067 3486.06 234.867 3487.93 233C3489.93 231.133 3490.99 228.133 3491.13 224L3493.73 140.2C3493.73 135.933 3492.53 133 3490.13 131.4C3487.86 129.667 3483.39 128.467 3476.73 127.8L3475.93 126.4L3477.33 117.2C3477.33 117.2 3478.46 117.267 3480.73 117.4C3482.99 117.533 3485.66 117.733 3488.73 118C3491.79 118.133 3494.59 118.2 3497.13 118.2C3499.66 118.2 3502.13 118.133 3504.53 118C3506.93 117.867 3508.93 117.733 3510.53 117.6C3512.13 117.467 3512.93 117.4 3512.93 117.4C3519.06 126.867 3525.06 136.133 3530.93 145.2C3536.79 154.133 3542.33 162.533 3547.53 170.4C3552.73 178.133 3557.33 184.933 3561.33 190.8C3565.46 196.533 3568.66 201.067 3570.93 204.4C3573.19 207.6 3574.33 209.2 3574.33 209.2H3575.73L3575.53 137.4C3575.53 134.333 3574.99 132.133 3573.93 130.8C3572.86 129.467 3571.19 128.8 3568.93 128.8C3567.33 128.8 3565.73 128.867 3564.13 129C3562.66 129 3561.86 129 3561.73 129L3561.13 127.8L3562.73 117.4C3562.73 117.4 3563.46 117.467 3564.93 117.6C3566.53 117.6 3568.46 117.667 3570.73 117.8C3573.13 117.933 3575.53 118.067 3577.93 118.2C3580.46 118.2 3582.73 118.2 3584.73 118.2C3587.66 118.2 3590.79 118.133 3594.13 118C3597.46 117.733 3600.26 117.467 3602.53 117.2C3604.93 116.933 3606.13 116.8 3606.13 116.8L3605.13 127.8C3600.59 128.333 3597.26 129.6 3595.13 131.6C3593.13 133.6 3592.06 136.533 3591.93 140.4L3589.13 250.2L3576.73 252.8Z" fill="white"/>
<path d="M3897.8 248L3899 237C3904.87 236.2 3908.87 234.6 3911 232.2C3913.13 229.8 3914.2 225.733 3914.2 220L3914.4 139.4C3914.4 135.133 3913.93 132.267 3913 130.8C3912.2 129.333 3910.33 128.6 3907.4 128.6C3906.6 128.6 3905.53 128.667 3904.2 128.8C3903 128.8 3901.87 128.867 3900.8 129L3900 127.8L3901.6 117.6C3904.27 117.6 3907.4 117.667 3911 117.8C3914.73 117.933 3918.53 118.067 3922.4 118.2C3926.4 118.2 3930 118.2 3933.2 118.2C3943.47 118.2 3952.27 118.133 3959.6 118C3967.07 117.867 3973.53 117.6 3979 117.2C3984.47 116.8 3989.33 116.333 3993.6 115.8L3994.6 117.4C3993.93 120.733 3993.27 124.467 3992.6 128.6C3991.93 132.6 3991.4 136.667 3991 140.8C3990.6 144.8 3990.27 148.533 3990 152L3976.6 153C3976.73 151.8 3976.8 150.333 3976.8 148.6C3976.93 146.867 3977 145.533 3977 144.6C3977 141.533 3976.73 139.133 3976.2 137.4C3975.67 135.533 3974.47 134.2 3972.6 133.4C3970.73 132.467 3967.87 131.867 3964 131.6C3960.27 131.2 3955.2 131 3948.8 131C3944.93 131 3942.13 131.133 3940.4 131.4C3938.67 131.667 3937.53 132.333 3937 133.4C3936.6 134.467 3936.33 136.133 3936.2 138.4L3934.2 183.6L3933.6 222.2C3933.6 225.667 3933.87 228.267 3934.4 230C3935.07 231.733 3936.4 232.867 3938.4 233.4C3940.4 233.933 3943.6 234.2 3948 234.2C3955.2 234.2 3961 233.933 3965.4 233.4C3969.8 232.867 3973.13 231.8 3975.4 230.2C3977.8 228.6 3979.53 226.2 3980.6 223C3981.8 219.8 3982.73 215.6 3983.4 210.4L3995.8 209.2L3996.8 210.6C3995.73 215.133 3994.67 220.733 3993.6 227.4C3992.67 234.067 3991.87 240.2 3991.2 245.8L3989.8 247.4C3982.2 247.133 3974.47 246.867 3966.6 246.6C3958.73 246.467 3951.47 246.333 3944.8 246.2C3938.13 246.067 3932.73 246 3928.6 246C3924.07 246 3918.87 246.133 3913 246.4C3907.27 246.8 3902.2 247.333 3897.8 248ZM3931.6 188.6L3933.2 173.8C3934.13 173.8 3935.87 173.8 3938.4 173.8C3940.93 173.8 3943.67 173.867 3946.6 174C3949.53 174 3952.13 174 3954.4 174C3956.67 174 3960.13 173.8 3964.8 173.4C3969.47 173 3974 172.533 3978.4 172L3979.4 173.4L3976.6 187.6C3973 187.467 3968.53 187.333 3963.2 187.2C3957.87 187.067 3953.33 187 3949.6 187C3946.8 187 3943.73 187.2 3940.4 187.6C3937.07 187.867 3934.13 188.2 3931.6 188.6ZM4054.75 249.2C4054.75 249.2 4054.29 247.6 4053.35 244.4C4052.42 241.2 4051.15 236.867 4049.55 231.4C4048.09 225.8 4046.22 219.4 4043.95 212.2C4041.82 204.867 4039.55 197.133 4037.15 189C4034.75 180.867 4032.29 172.667 4029.75 164.4C4027.22 156.133 4024.75 148.2 4022.35 140.6C4021.15 136.6 4019.22 133.667 4016.55 131.8C4013.89 129.933 4010.22 128.933 4005.55 128.8L4004.95 127.8L4006.35 117.6C4006.35 117.6 4007.22 117.667 4008.95 117.8C4010.69 117.8 4012.82 117.867 4015.35 118C4018.02 118 4020.69 118.067 4023.35 118.2C4026.15 118.2 4028.49 118.2 4030.35 118.2C4033.55 118.2 4036.95 118.133 4040.55 118C4044.15 117.733 4047.62 117.467 4050.95 117.2C4054.29 116.933 4056.95 116.733 4058.95 116.6C4061.09 116.333 4062.15 116.2 4062.15 116.2L4062.95 117.8L4061.95 127.4C4057.42 127.667 4053.95 128.133 4051.55 128.8C4049.15 129.333 4047.49 130.133 4046.55 131.2C4045.75 132.133 4045.35 133.533 4045.35 135.4C4045.35 136.467 4045.75 138.8 4046.55 142.4C4047.35 146 4048.35 150.467 4049.55 155.8C4050.89 161.133 4052.35 166.867 4053.95 173C4055.55 179.133 4057.15 185.2 4058.75 191.2C4060.35 197.067 4061.75 202.467 4062.95 207.4C4064.29 212.333 4065.35 216.267 4066.15 219.2C4067.09 222.133 4067.55 223.6 4067.55 223.6H4069.75C4071.22 220 4072.89 215.533 4074.75 210.2C4076.75 204.867 4078.89 199.067 4081.15 192.8C4083.42 186.533 4085.62 180.267 4087.75 174C4089.89 167.6 4091.82 161.667 4093.55 156.2C4095.42 150.733 4096.89 146.133 4097.95 142.4C4099.02 138.667 4099.55 136.333 4099.55 135.4C4099.55 132.867 4098.62 131.067 4096.75 130C4094.89 128.8 4091.75 128.2 4087.35 128.2H4077.95L4077.35 127.2L4078.55 117C4078.55 117 4080.09 117.133 4083.15 117.4C4086.22 117.533 4089.95 117.733 4094.35 118C4098.89 118.133 4103.35 118.2 4107.75 118.2C4111.09 118.2 4114.49 118.2 4117.95 118.2C4121.42 118.067 4124.29 117.933 4126.55 117.8C4128.95 117.667 4130.15 117.6 4130.15 117.6L4128.75 128.8C4125.02 128.933 4122.35 129.667 4120.75 131C4119.29 132.2 4117.89 134.733 4116.55 138.6L4076.15 245L4054.75 249.2ZM4139.6 248L4140.8 237C4146.66 236.2 4150.66 234.6 4152.8 232.2C4154.93 229.8 4156 225.733 4156 220L4156.2 139.4C4156.2 135.133 4155.73 132.267 4154.8 130.8C4154 129.333 4152.13 128.6 4149.2 128.6C4148.4 128.6 4147.33 128.667 4146 128.8C4144.8 128.8 4143.66 128.867 4142.6 129L4141.8 127.8L4143.4 117.6C4146.06 117.6 4149.2 117.667 4152.8 117.8C4156.53 117.933 4160.33 118.067 4164.2 118.2C4168.2 118.2 4171.8 118.2 4175 118.2C4185.26 118.2 4194.06 118.133 4201.4 118C4208.86 117.867 4215.33 117.6 4220.8 117.2C4226.26 116.8 4231.13 116.333 4235.4 115.8L4236.4 117.4C4235.73 120.733 4235.06 124.467 4234.4 128.6C4233.73 132.6 4233.2 136.667 4232.8 140.8C4232.4 144.8 4232.06 148.533 4231.8 152L4218.4 153C4218.53 151.8 4218.6 150.333 4218.6 148.6C4218.73 146.867 4218.8 145.533 4218.8 144.6C4218.8 141.533 4218.53 139.133 4218 137.4C4217.46 135.533 4216.26 134.2 4214.4 133.4C4212.53 132.467 4209.66 131.867 4205.8 131.6C4202.06 131.2 4197 131 4190.6 131C4186.73 131 4183.93 131.133 4182.2 131.4C4180.46 131.667 4179.33 132.333 4178.8 133.4C4178.4 134.467 4178.13 136.133 4178 138.4L4176 183.6L4175.4 222.2C4175.4 225.667 4175.66 228.267 4176.2 230C4176.86 231.733 4178.2 232.867 4180.2 233.4C4182.2 233.933 4185.4 234.2 4189.8 234.2C4197 234.2 4202.8 233.933 4207.2 233.4C4211.6 232.867 4214.93 231.8 4217.2 230.2C4219.6 228.6 4221.33 226.2 4222.4 223C4223.6 219.8 4224.53 215.6 4225.2 210.4L4237.6 209.2L4238.6 210.6C4237.53 215.133 4236.46 220.733 4235.4 227.4C4234.46 234.067 4233.66 240.2 4233 245.8L4231.6 247.4C4224 247.133 4216.26 246.867 4208.4 246.6C4200.53 246.467 4193.26 246.333 4186.6 246.2C4179.93 246.067 4174.53 246 4170.4 246C4165.86 246 4160.66 246.133 4154.8 246.4C4149.06 246.8 4144 247.333 4139.6 248ZM4173.4 188.6L4175 173.8C4175.93 173.8 4177.66 173.8 4180.2 173.8C4182.73 173.8 4185.46 173.867 4188.4 174C4191.33 174 4193.93 174 4196.2 174C4198.46 174 4201.93 173.8 4206.6 173.4C4211.26 173 4215.8 172.533 4220.2 172L4221.2 173.4L4218.4 187.6C4214.8 187.467 4210.33 187.333 4205 187.2C4199.66 187.067 4195.13 187 4191.4 187C4188.6 187 4185.53 187.2 4182.2 187.6C4178.86 187.867 4175.93 188.2 4173.4 188.6ZM4358.35 252.8C4349.55 238.8 4341.08 225.733 4332.95 213.6C4324.82 201.333 4317.62 190.6 4311.35 181.4C4305.08 172.2 4300.08 165 4296.35 159.8C4292.75 154.467 4290.95 151.8 4290.95 151.8H4289.55L4288.75 227C4288.88 230.067 4289.42 232.267 4290.35 233.6C4291.28 234.8 4292.95 235.4 4295.35 235.4C4296.02 235.4 4297.08 235.4 4298.55 235.4C4300.15 235.267 4301.62 235.2 4302.95 235.2C4304.28 235.2 4304.95 235.2 4304.95 235.2L4305.55 236.2L4303.75 246.8C4303.75 246.8 4302.95 246.733 4301.35 246.6C4299.75 246.6 4297.75 246.533 4295.35 246.4C4292.95 246.267 4290.42 246.133 4287.75 246C4285.08 246 4282.68 246 4280.55 246C4277.48 246 4274.28 246.133 4270.95 246.4C4267.75 246.667 4265.02 246.933 4262.75 247.2C4260.48 247.467 4259.35 247.6 4259.35 247.6L4260.55 236.6C4264.68 236.067 4267.68 234.867 4269.55 233C4271.55 231.133 4272.62 228.133 4272.75 224L4275.35 140.2C4275.35 135.933 4274.15 133 4271.75 131.4C4269.48 129.667 4265.02 128.467 4258.35 127.8L4257.55 126.4L4258.95 117.2C4258.95 117.2 4260.08 117.267 4262.35 117.4C4264.62 117.533 4267.28 117.733 4270.35 118C4273.42 118.133 4276.22 118.2 4278.75 118.2C4281.28 118.2 4283.75 118.133 4286.15 118C4288.55 117.867 4290.55 117.733 4292.15 117.6C4293.75 117.467 4294.55 117.4 4294.55 117.4C4300.68 126.867 4306.68 136.133 4312.55 145.2C4318.42 154.133 4323.95 162.533 4329.15 170.4C4334.35 178.133 4338.95 184.933 4342.95 190.8C4347.08 196.533 4350.28 201.067 4352.55 204.4C4354.82 207.6 4355.95 209.2 4355.95 209.2H4357.35L4357.15 137.4C4357.15 134.333 4356.62 132.133 4355.55 130.8C4354.48 129.467 4352.82 128.8 4350.55 128.8C4348.95 128.8 4347.35 128.867 4345.75 129C4344.28 129 4343.48 129 4343.35 129L4342.75 127.8L4344.35 117.4C4344.35 117.4 4345.08 117.467 4346.55 117.6C4348.15 117.6 4350.08 117.667 4352.35 117.8C4354.75 117.933 4357.15 118.067 4359.55 118.2C4362.08 118.2 4364.35 118.2 4366.35 118.2C4369.28 118.2 4372.42 118.133 4375.75 118C4379.08 117.733 4381.88 117.467 4384.15 117.2C4386.55 116.933 4387.75 116.8 4387.75 116.8L4386.75 127.8C4382.22 128.333 4378.88 129.6 4376.75 131.6C4374.75 133.6 4373.68 136.533 4373.55 140.4L4370.75 250.2L4358.35 252.8ZM4413.36 247L4414.96 236.4C4421.09 235.867 4425.56 235.067 4428.36 234C4431.16 232.8 4432.96 230.667 4433.76 227.6C4434.56 224.533 4434.96 219.8 4434.96 213.4V129.4C4428.16 129.533 4422.82 129.867 4418.96 130.4C4415.09 130.933 4412.16 132 4410.16 133.6C4408.29 135.2 4406.89 137.733 4405.96 141.2C4405.16 144.533 4404.42 149.133 4403.76 155L4391.16 156C4391.69 151.733 4392.09 147.333 4392.36 142.8C4392.76 138.267 4393.09 133.8 4393.36 129.4C4393.62 125 4393.82 121.067 4393.96 117.6L4395.96 115.8L4413.96 118H4476.16L4494.56 115.8L4496.56 117.6C4496.69 121.333 4496.82 125.467 4496.96 130C4497.22 134.4 4497.56 138.8 4497.96 143.2C4498.36 147.467 4498.76 151.4 4499.16 155L4486.56 156C4485.76 149.867 4484.89 145.067 4483.96 141.6C4483.02 138.133 4481.62 135.6 4479.76 134C4478.02 132.267 4475.36 131.133 4471.76 130.6C4468.16 130.067 4463.22 129.667 4456.96 129.4C4456.56 133.667 4456.16 139.4 4455.76 146.6C4455.49 153.8 4455.22 161.733 4454.96 170.4C4454.82 178.933 4454.62 187.667 4454.36 196.6C4454.22 205.533 4454.16 213.867 4454.16 221.6C4454.16 226.533 4455.02 230.067 4456.76 232.2C4458.49 234.2 4461.36 235.2 4465.36 235.2C4468.96 235.2 4472.56 235 4476.16 234.6L4476.76 235.6L4474.96 246.8C4471.89 246.533 4468.29 246.333 4464.16 246.2C4460.16 246.2 4456.29 246.133 4452.56 246C4448.82 246 4445.76 246 4443.36 246C4441.09 246 4438.22 246 4434.76 246C4431.29 246.133 4427.62 246.267 4423.76 246.4C4420.02 246.667 4416.56 246.867 4413.36 247ZM4544.89 248.4C4538.22 248.4 4532.42 247.8 4527.49 246.6C4522.56 245.4 4518.69 244.2 4515.89 243C4513.09 241.8 4511.69 241.2 4511.69 241.2L4510.49 239C4510.49 239 4510.62 238.067 4510.89 236.2C4511.16 234.2 4511.42 231.667 4511.69 228.6C4512.09 225.4 4512.42 221.733 4512.69 217.6C4513.09 213.333 4513.29 208.933 4513.29 204.4L4525.49 203.4C4525.49 211.933 4526.16 218.533 4527.49 223.2C4528.82 227.733 4531.22 230.867 4534.69 232.6C4538.29 234.333 4543.36 235.2 4549.89 235.2C4557.22 235.2 4563.16 233.467 4567.69 230C4572.36 226.533 4574.69 221.867 4574.69 216C4574.69 211.867 4573.22 208.333 4570.29 205.4C4567.36 202.467 4563.62 199.733 4559.09 197.2C4554.56 194.667 4549.76 192.133 4544.69 189.6C4539.36 186.933 4534.22 184 4529.29 180.8C4524.36 177.6 4520.29 173.867 4517.09 169.6C4514.02 165.333 4512.49 160.2 4512.49 154.2C4512.49 146.733 4514.62 140.133 4518.89 134.4C4523.16 128.667 4528.96 124.133 4536.29 120.8C4543.76 117.467 4552.22 115.8 4561.69 115.8C4567.96 115.8 4573.49 116.2 4578.29 117C4583.09 117.8 4586.89 118.667 4589.69 119.6C4592.49 120.533 4593.89 121 4593.89 121L4594.69 122.8C4594.69 122.8 4594.36 124.333 4593.69 127.4C4593.16 130.467 4592.56 134.6 4591.89 139.8C4591.22 145 4590.62 150.667 4590.09 156.8L4579.29 157.8L4577.69 156.6C4577.69 156.6 4577.76 155.8 4577.89 154.2C4578.16 152.467 4578.29 150.267 4578.29 147.6C4578.29 141.067 4576.62 136.533 4573.29 134C4570.09 131.333 4564.42 130 4556.29 130C4549.76 130 4544.36 131.667 4540.09 135C4535.82 138.2 4533.69 142.267 4533.69 147.2C4533.69 150.933 4534.96 154.267 4537.49 157.2C4540.02 160 4543.29 162.6 4547.29 165C4551.42 167.4 4555.82 169.733 4560.49 172C4566.22 174.8 4571.89 177.867 4577.49 181.2C4583.09 184.533 4587.69 188.4 4591.29 192.8C4595.02 197.067 4596.89 202.4 4596.89 208.8C4596.89 216.667 4594.69 223.6 4590.29 229.6C4586.02 235.467 4579.96 240.067 4572.09 243.4C4564.36 246.733 4555.29 248.4 4544.89 248.4Z" fill="white"/>
<path d="M4945.6 248.4C4933.47 248.4 4922.93 245.867 4914 240.8C4905.07 235.733 4898.13 228.533 4893.2 219.2C4888.4 209.867 4886 198.8 4886 186C4886 175.6 4887.67 166.133 4891 157.6C4894.47 148.933 4899.27 141.533 4905.4 135.4C4911.67 129.133 4919 124.333 4927.4 121C4935.93 117.533 4945.4 115.8 4955.8 115.8C4959.93 115.8 4964.13 116.067 4968.4 116.6C4972.8 117 4976.73 117.533 4980.2 118.2C4983.8 118.867 4986.67 119.467 4988.8 120C4991.07 120.4 4992.2 120.6 4992.2 120.6L4993 122.4C4993 122.4 4992.67 124 4992 127.2C4991.33 130.267 4990.6 134.533 4989.8 140C4989 145.333 4988.4 151.267 4988 157.8L4974 158.8C4974 158.8 4974.07 157.733 4974.2 155.6C4974.47 153.333 4974.6 151 4974.6 148.6C4974.6 142.6 4972.47 138.133 4968.2 135.2C4963.93 132.267 4957.33 130.8 4948.4 130.8C4940.27 130.8 4933.33 132.733 4927.6 136.6C4921.87 140.467 4917.4 146 4914.2 153.2C4911.13 160.267 4909.6 169 4909.6 179.4C4909.6 190.733 4911.27 200.533 4914.6 208.8C4917.93 217.067 4922.6 223.467 4928.6 228C4934.6 232.4 4941.73 234.6 4950 234.6C4958.27 234.6 4964.8 232.2 4969.6 227.4C4974.53 222.6 4978.07 215.067 4980.2 204.8L4994.2 203.6C4994.2 203.6 4994 204.667 4993.6 206.8C4993.2 208.933 4992.73 211.733 4992.2 215.2C4991.67 218.667 4991.13 222.467 4990.6 226.6C4990.07 230.6 4989.67 234.533 4989.4 238.4L4988 240.4C4988 240.4 4986.13 241.067 4982.4 242.4C4978.67 243.733 4973.6 245.067 4967.2 246.4C4960.93 247.733 4953.73 248.4 4945.6 248.4ZM5064.66 248.4C5053.33 248.4 5043.46 245.867 5035.06 240.8C5026.66 235.6 5020.13 228.333 5015.46 219C5010.79 209.533 5008.46 198.533 5008.46 186C5008.46 175.867 5010.06 166.533 5013.26 158C5016.46 149.467 5020.99 142.067 5026.86 135.8C5032.86 129.4 5039.86 124.467 5047.86 121C5055.86 117.533 5064.59 115.8 5074.06 115.8C5085.79 115.8 5095.93 118.4 5104.46 123.6C5112.99 128.667 5119.59 135.867 5124.26 145.2C5129.06 154.4 5131.46 165.267 5131.46 177.8C5131.46 188.067 5129.79 197.533 5126.46 206.2C5123.13 214.733 5118.46 222.133 5112.46 228.4C5106.59 234.667 5099.59 239.6 5091.46 243.2C5083.33 246.667 5074.39 248.4 5064.66 248.4ZM5070.46 235.2C5078.06 235.2 5084.59 233.267 5090.06 229.4C5095.66 225.4 5099.99 219.8 5103.06 212.6C5106.26 205.4 5107.86 196.933 5107.86 187.2C5107.86 175.467 5106.19 165.467 5102.86 157.2C5099.53 148.8 5094.86 142.333 5088.86 137.8C5082.99 133.267 5075.99 131 5067.86 131C5060.53 131 5054.13 133 5048.66 137C5043.19 140.867 5038.93 146.4 5035.86 153.6C5032.93 160.667 5031.46 169.067 5031.46 178.8C5031.46 190.4 5033.06 200.4 5036.26 208.8C5039.46 217.2 5043.99 223.733 5049.86 228.4C5055.73 232.933 5062.59 235.2 5070.46 235.2ZM5248.18 252.8C5239.38 238.8 5230.91 225.733 5222.78 213.6C5214.65 201.333 5207.45 190.6 5201.18 181.4C5194.91 172.2 5189.91 165 5186.18 159.8C5182.58 154.467 5180.78 151.8 5180.78 151.8H5179.38L5178.58 227C5178.71 230.067 5179.25 232.267 5180.18 233.6C5181.11 234.8 5182.78 235.4 5185.18 235.4C5185.85 235.4 5186.91 235.4 5188.38 235.4C5189.98 235.267 5191.45 235.2 5192.78 235.2C5194.11 235.2 5194.78 235.2 5194.78 235.2L5195.38 236.2L5193.58 246.8C5193.58 246.8 5192.78 246.733 5191.18 246.6C5189.58 246.6 5187.58 246.533 5185.18 246.4C5182.78 246.267 5180.25 246.133 5177.58 246C5174.91 246 5172.51 246 5170.38 246C5167.31 246 5164.11 246.133 5160.78 246.4C5157.58 246.667 5154.85 246.933 5152.58 247.2C5150.31 247.467 5149.18 247.6 5149.18 247.6L5150.38 236.6C5154.51 236.067 5157.51 234.867 5159.38 233C5161.38 231.133 5162.45 228.133 5162.58 224L5165.18 140.2C5165.18 135.933 5163.98 133 5161.58 131.4C5159.31 129.667 5154.85 128.467 5148.18 127.8L5147.38 126.4L5148.78 117.2C5148.78 117.2 5149.91 117.267 5152.18 117.4C5154.45 117.533 5157.11 117.733 5160.18 118C5163.25 118.133 5166.05 118.2 5168.58 118.2C5171.11 118.2 5173.58 118.133 5175.98 118C5178.38 117.867 5180.38 117.733 5181.98 117.6C5183.58 117.467 5184.38 117.4 5184.38 117.4C5190.51 126.867 5196.51 136.133 5202.38 145.2C5208.25 154.133 5213.78 162.533 5218.98 170.4C5224.18 178.133 5228.78 184.933 5232.78 190.8C5236.91 196.533 5240.11 201.067 5242.38 204.4C5244.65 207.6 5245.78 209.2 5245.78 209.2H5247.18L5246.98 137.4C5246.98 134.333 5246.45 132.133 5245.38 130.8C5244.31 129.467 5242.65 128.8 5240.38 128.8C5238.78 128.8 5237.18 128.867 5235.58 129C5234.11 129 5233.31 129 5233.18 129L5232.58 127.8L5234.18 117.4C5234.18 117.4 5234.91 117.467 5236.38 117.6C5237.98 117.6 5239.91 117.667 5242.18 117.8C5244.58 117.933 5246.98 118.067 5249.38 118.2C5251.91 118.2 5254.18 118.2 5256.18 118.2C5259.11 118.2 5262.25 118.133 5265.58 118C5268.91 117.733 5271.71 117.467 5273.98 117.2C5276.38 116.933 5277.58 116.8 5277.58 116.8L5276.58 127.8C5272.05 128.333 5268.71 129.6 5266.58 131.6C5264.58 133.6 5263.51 136.533 5263.38 140.4L5260.58 250.2L5248.18 252.8ZM5303.19 247L5304.79 236.4C5310.92 235.867 5315.39 235.067 5318.19 234C5320.99 232.8 5322.79 230.667 5323.59 227.6C5324.39 224.533 5324.79 219.8 5324.79 213.4V129.4C5317.99 129.533 5312.65 129.867 5308.79 130.4C5304.92 130.933 5301.99 132 5299.99 133.6C5298.12 135.2 5296.72 137.733 5295.79 141.2C5294.99 144.533 5294.25 149.133 5293.59 155L5280.99 156C5281.52 151.733 5281.92 147.333 5282.19 142.8C5282.59 138.267 5282.92 133.8 5283.19 129.4C5283.45 125 5283.65 121.067 5283.79 117.6L5285.79 115.8L5303.79 118H5365.99L5384.39 115.8L5386.39 117.6C5386.52 121.333 5386.65 125.467 5386.79 130C5387.05 134.4 5387.39 138.8 5387.79 143.2C5388.19 147.467 5388.59 151.4 5388.99 155L5376.39 156C5375.59 149.867 5374.72 145.067 5373.79 141.6C5372.85 138.133 5371.45 135.6 5369.59 134C5367.85 132.267 5365.19 131.133 5361.59 130.6C5357.99 130.067 5353.05 129.667 5346.79 129.4C5346.39 133.667 5345.99 139.4 5345.59 146.6C5345.32 153.8 5345.05 161.733 5344.79 170.4C5344.65 178.933 5344.45 187.667 5344.19 196.6C5344.05 205.533 5343.99 213.867 5343.99 221.6C5343.99 226.533 5344.85 230.067 5346.59 232.2C5348.32 234.2 5351.19 235.2 5355.19 235.2C5358.79 235.2 5362.39 235 5365.99 234.6L5366.59 235.6L5364.79 246.8C5361.72 246.533 5358.12 246.333 5353.99 246.2C5349.99 246.2 5346.12 246.133 5342.39 246C5338.65 246 5335.59 246 5333.19 246C5330.92 246 5328.05 246 5324.59 246C5321.12 246.133 5317.45 246.267 5313.59 246.4C5309.85 246.667 5306.39 246.867 5303.19 247ZM5451.66 247.8L5450.86 246.4L5451.66 236.8C5456.19 236.267 5459.66 235.8 5462.06 235.4C5464.46 234.867 5466.13 234.133 5467.06 233.2C5467.99 232.267 5468.46 230.933 5468.46 229.2C5468.46 228.133 5468.33 226.933 5468.06 225.6C5467.93 224.133 5467.59 222.6 5467.06 221L5461.46 202C5459.06 201.867 5455.79 201.8 5451.66 201.8C5447.66 201.8 5444.39 201.8 5441.86 201.8C5438.26 201.8 5434.46 202 5430.46 202.4C5426.59 202.667 5423.53 202.933 5421.26 203.2L5414.86 221.6C5413.79 224.8 5413.26 227.133 5413.26 228.6C5413.26 231.267 5414.13 233.2 5415.86 234.4C5417.59 235.467 5420.33 236 5424.06 236H5434.26L5434.86 237L5433.66 247.2C5433.66 247.2 5432.19 247.067 5429.26 246.8C5426.33 246.667 5422.66 246.467 5418.26 246.2C5413.86 246.067 5409.53 246 5405.26 246C5401.79 246 5398.26 246 5394.66 246C5391.19 246.133 5388.26 246.267 5385.86 246.4C5383.46 246.533 5382.26 246.6 5382.26 246.6L5383.86 235.6C5387.33 235.067 5390.13 233.8 5392.26 231.8C5394.39 229.667 5396.39 226.067 5398.26 221L5435.86 119.2L5456.66 115.8L5458.46 116.4C5458.46 116.4 5458.93 118.067 5459.86 121.4C5460.79 124.6 5461.99 129.067 5463.46 134.8C5465.06 140.4 5466.86 146.8 5468.86 154C5470.86 161.2 5472.99 168.733 5475.26 176.6C5477.53 184.467 5479.79 192.333 5482.06 200.2C5484.46 207.933 5486.73 215.133 5488.86 221.8C5490.46 226.6 5492.53 230 5495.06 232C5497.59 234 5501.46 235.267 5506.66 235.8L5507.26 236.8L5505.86 246.6C5505.86 246.6 5504.46 246.533 5501.66 246.4C5498.99 246.267 5495.86 246.133 5492.26 246C5488.79 246 5485.73 246 5483.06 246C5477.86 246 5472.79 246.133 5467.86 246.4C5463.06 246.8 5459.13 247.133 5456.06 247.4C5453.13 247.667 5451.66 247.8 5451.66 247.8ZM5425.26 190.2H5441.46C5443.86 190.2 5446.73 190.133 5450.06 190C5453.39 189.733 5456.13 189.533 5458.26 189.4L5444.46 140.6H5442.46L5425.26 190.2ZM5569.82 248.4C5557.69 248.4 5547.15 245.867 5538.22 240.8C5529.29 235.733 5522.35 228.533 5517.42 219.2C5512.62 209.867 5510.22 198.8 5510.22 186C5510.22 175.6 5511.89 166.133 5515.22 157.6C5518.69 148.933 5523.49 141.533 5529.62 135.4C5535.89 129.133 5543.22 124.333 5551.62 121C5560.15 117.533 5569.62 115.8 5580.02 115.8C5584.15 115.8 5588.35 116.067 5592.62 116.6C5597.02 117 5600.95 117.533 5604.42 118.2C5608.02 118.867 5610.89 119.467 5613.02 120C5615.29 120.4 5616.42 120.6 5616.42 120.6L5617.22 122.4C5617.22 122.4 5616.89 124 5616.22 127.2C5615.55 130.267 5614.82 134.533 5614.02 140C5613.22 145.333 5612.62 151.267 5612.22 157.8L5598.22 158.8C5598.22 158.8 5598.29 157.733 5598.42 155.6C5598.69 153.333 5598.82 151 5598.82 148.6C5598.82 142.6 5596.69 138.133 5592.42 135.2C5588.15 132.267 5581.55 130.8 5572.62 130.8C5564.49 130.8 5557.55 132.733 5551.82 136.6C5546.09 140.467 5541.62 146 5538.42 153.2C5535.35 160.267 5533.82 169 5533.82 179.4C5533.82 190.733 5535.49 200.533 5538.82 208.8C5542.15 217.067 5546.82 223.467 5552.82 228C5558.82 232.4 5565.95 234.6 5574.22 234.6C5582.49 234.6 5589.02 232.2 5593.82 227.4C5598.75 222.6 5602.29 215.067 5604.42 204.8L5618.42 203.6C5618.42 203.6 5618.22 204.667 5617.82 206.8C5617.42 208.933 5616.95 211.733 5616.42 215.2C5615.89 218.667 5615.35 222.467 5614.82 226.6C5614.29 230.6 5613.89 234.533 5613.62 238.4L5612.22 240.4C5612.22 240.4 5610.35 241.067 5606.62 242.4C5602.89 243.733 5597.82 245.067 5591.42 246.4C5585.15 247.733 5577.95 248.4 5569.82 248.4ZM5651.04 247L5652.64 236.4C5658.77 235.867 5663.24 235.067 5666.04 234C5668.84 232.8 5670.64 230.667 5671.44 227.6C5672.24 224.533 5672.64 219.8 5672.64 213.4V129.4C5665.84 129.533 5660.5 129.867 5656.64 130.4C5652.77 130.933 5649.84 132 5647.84 133.6C5645.97 135.2 5644.57 137.733 5643.64 141.2C5642.84 144.533 5642.1 149.133 5641.44 155L5628.84 156C5629.37 151.733 5629.77 147.333 5630.04 142.8C5630.44 138.267 5630.77 133.8 5631.04 129.4C5631.3 125 5631.5 121.067 5631.64 117.6L5633.64 115.8L5651.64 118H5713.84L5732.24 115.8L5734.24 117.6C5734.37 121.333 5734.5 125.467 5734.64 130C5734.9 134.4 5735.24 138.8 5735.64 143.2C5736.04 147.467 5736.44 151.4 5736.84 155L5724.24 156C5723.44 149.867 5722.57 145.067 5721.64 141.6C5720.7 138.133 5719.3 135.6 5717.44 134C5715.7 132.267 5713.04 131.133 5709.44 130.6C5705.84 130.067 5700.9 129.667 5694.64 129.4C5694.24 133.667 5693.84 139.4 5693.44 146.6C5693.17 153.8 5692.9 161.733 5692.64 170.4C5692.5 178.933 5692.3 187.667 5692.04 196.6C5691.9 205.533 5691.84 213.867 5691.84 221.6C5691.84 226.533 5692.7 230.067 5694.44 232.2C5696.17 234.2 5699.04 235.2 5703.04 235.2C5706.64 235.2 5710.24 235 5713.84 234.6L5714.44 235.6L5712.64 246.8C5709.57 246.533 5705.97 246.333 5701.84 246.2C5697.84 246.2 5693.97 246.133 5690.24 246C5686.5 246 5683.44 246 5681.04 246C5678.77 246 5675.9 246 5672.44 246C5668.97 246.133 5665.3 246.267 5661.44 246.4C5657.7 246.667 5654.24 246.867 5651.04 247ZM5782.57 248.4C5775.9 248.4 5770.1 247.8 5765.17 246.6C5760.24 245.4 5756.37 244.2 5753.57 243C5750.77 241.8 5749.37 241.2 5749.37 241.2L5748.17 239C5748.17 239 5748.3 238.067 5748.57 236.2C5748.84 234.2 5749.1 231.667 5749.37 228.6C5749.77 225.4 5750.1 221.733 5750.37 217.6C5750.77 213.333 5750.97 208.933 5750.97 204.4L5763.17 203.4C5763.17 211.933 5763.84 218.533 5765.17 223.2C5766.5 227.733 5768.9 230.867 5772.37 232.6C5775.97 234.333 5781.04 235.2 5787.57 235.2C5794.9 235.2 5800.84 233.467 5805.37 230C5810.04 226.533 5812.37 221.867 5812.37 216C5812.37 211.867 5810.9 208.333 5807.97 205.4C5805.04 202.467 5801.3 199.733 5796.77 197.2C5792.24 194.667 5787.44 192.133 5782.37 189.6C5777.04 186.933 5771.9 184 5766.97 180.8C5762.04 177.6 5757.97 173.867 5754.77 169.6C5751.7 165.333 5750.17 160.2 5750.17 154.2C5750.17 146.733 5752.3 140.133 5756.57 134.4C5760.84 128.667 5766.64 124.133 5773.97 120.8C5781.44 117.467 5789.9 115.8 5799.37 115.8C5805.64 115.8 5811.17 116.2 5815.97 117C5820.77 117.8 5824.57 118.667 5827.37 119.6C5830.17 120.533 5831.57 121 5831.57 121L5832.37 122.8C5832.37 122.8 5832.04 124.333 5831.37 127.4C5830.84 130.467 5830.24 134.6 5829.57 139.8C5828.9 145 5828.3 150.667 5827.77 156.8L5816.97 157.8L5815.37 156.6C5815.37 156.6 5815.44 155.8 5815.57 154.2C5815.84 152.467 5815.97 150.267 5815.97 147.6C5815.97 141.067 5814.3 136.533 5810.97 134C5807.77 131.333 5802.1 130 5793.97 130C5787.44 130 5782.04 131.667 5777.77 135C5773.5 138.2 5771.37 142.267 5771.37 147.2C5771.37 150.933 5772.64 154.267 5775.17 157.2C5777.7 160 5780.97 162.6 5784.97 165C5789.1 167.4 5793.5 169.733 5798.17 172C5803.9 174.8 5809.57 177.867 5815.17 181.2C5820.77 184.533 5825.37 188.4 5828.97 192.8C5832.7 197.067 5834.57 202.4 5834.57 208.8C5834.57 216.667 5832.37 223.6 5827.97 229.6C5823.7 235.467 5817.64 240.067 5809.77 243.4C5802.04 246.733 5792.97 248.4 5782.57 248.4Z" fill="white"/>
</svg>
